<mxfile host="Electron" modified="2024-05-31T22:08:53.378Z" agent="Mozilla/5.0 (Windows NT 10.0; Win64; x64) AppleWebKit/537.36 (KHTML, like Gecko) draw.io/24.4.8 Chrome/124.0.6367.207 Electron/30.0.6 Safari/537.36" etag="lYQTHW9S_EJ8mjRCEJMw" version="24.4.8" type="device">
  <diagram name="Page-1" id="KZN-zyBD-0XipZeYQRDT">
    <mxGraphModel dx="192" dy="111" grid="1" gridSize="10" guides="1" tooltips="1" connect="1" arrows="1" fold="1" page="1" pageScale="1" pageWidth="500" pageHeight="200" math="0" shadow="0">
      <root>
        <mxCell id="0" />
        <mxCell id="1" parent="0" />
        <mxCell id="qLM1yfY9q9ddXlRUWV7z-305" value="" style="group" parent="1" vertex="1" connectable="0">
          <mxGeometry x="9" y="78" width="482.6" height="44.45" as="geometry" />
        </mxCell>
        <mxCell id="9eh16xiQdjSHdPkHuFP6-378" value="" style="rounded=0;whiteSpace=wrap;html=1;strokeColor=#aaaaaa;fillColor=#bfbfbf;strokeWidth=1;container=0;part=1;movable=1;resizable=1;rotatable=1;deletable=1;editable=1;locked=0;connectable=1;" parent="qLM1yfY9q9ddXlRUWV7z-305" vertex="1">
          <mxGeometry width="482.6" height="44.45" as="geometry" />
        </mxCell>
        <mxCell id="9eh16xiQdjSHdPkHuFP6-379" value="" style="rounded=0;whiteSpace=wrap;html=1;strokeColor=#aaaaaa;fillColor=#222222;strokeWidth=1;movable=1;resizable=1;rotatable=1;deletable=1;editable=1;locked=0;connectable=1;container=0;" parent="qLM1yfY9q9ddXlRUWV7z-305" vertex="1">
          <mxGeometry x="18" width="446.6" height="44.45" as="geometry" />
        </mxCell>
        <mxCell id="jP2WbbBxQBNUkDRbYnSl-231" value="" style="rounded=0;whiteSpace=wrap;html=1;fillColor=#000000;fontColor=#ffffff;strokeColor=none;container=0;" parent="qLM1yfY9q9ddXlRUWV7z-305" vertex="1">
          <mxGeometry x="7" y="19.224999999999994" width="4" height="6" as="geometry" />
        </mxCell>
        <mxCell id="jP2WbbBxQBNUkDRbYnSl-232" value="" style="ellipse;whiteSpace=wrap;html=1;aspect=fixed;strokeColor=none;fillColor=#000000;container=0;" parent="qLM1yfY9q9ddXlRUWV7z-305" vertex="1">
          <mxGeometry x="8" y="19.224999999999994" width="6" height="6" as="geometry" />
        </mxCell>
        <mxCell id="jP2WbbBxQBNUkDRbYnSl-233" value="" style="ellipse;whiteSpace=wrap;html=1;aspect=fixed;strokeColor=none;fillColor=#000000;container=0;" parent="qLM1yfY9q9ddXlRUWV7z-305" vertex="1">
          <mxGeometry x="4" y="19.224999999999994" width="6" height="6" as="geometry" />
        </mxCell>
        <mxCell id="wEfOMtyTKLQo5fzBktWI-2" value="" style="rounded=0;whiteSpace=wrap;html=1;fillColor=#000000;fontColor=#ffffff;strokeColor=none;container=0;" parent="qLM1yfY9q9ddXlRUWV7z-305" vertex="1">
          <mxGeometry x="471.59625000000017" y="19.224999999999994" width="4" height="6" as="geometry" />
        </mxCell>
        <mxCell id="wEfOMtyTKLQo5fzBktWI-3" value="" style="ellipse;whiteSpace=wrap;html=1;aspect=fixed;strokeColor=none;fillColor=#000000;container=0;" parent="qLM1yfY9q9ddXlRUWV7z-305" vertex="1">
          <mxGeometry x="472.59625000000017" y="19.224999999999994" width="6" height="6" as="geometry" />
        </mxCell>
        <mxCell id="wEfOMtyTKLQo5fzBktWI-4" value="" style="ellipse;whiteSpace=wrap;html=1;aspect=fixed;strokeColor=none;fillColor=#000000;container=0;" parent="qLM1yfY9q9ddXlRUWV7z-305" vertex="1">
          <mxGeometry x="468.59625000000017" y="19.224999999999994" width="6" height="6" as="geometry" />
        </mxCell>
        <mxCell id="jP2WbbBxQBNUkDRbYnSl-206" value="" style="rounded=0;whiteSpace=wrap;html=1;strokeColor=#aaaaaa;fillColor=#bfbfbf;strokeWidth=1;movable=1;resizable=1;rotatable=1;deletable=1;editable=1;locked=0;connectable=1;container=0;" parent="qLM1yfY9q9ddXlRUWV7z-305" vertex="1">
          <mxGeometry x="7.99625" width="10" height="44.45" as="geometry" />
        </mxCell>
        <mxCell id="wEfOMtyTKLQo5fzBktWI-5" value="" style="rounded=0;whiteSpace=wrap;html=1;strokeColor=#aaaaaa;fillColor=#bfbfbf;strokeWidth=1;movable=1;resizable=1;rotatable=1;deletable=1;editable=1;locked=0;connectable=1;container=0;" parent="qLM1yfY9q9ddXlRUWV7z-305" vertex="1">
          <mxGeometry x="464.60000000000014" width="10" height="44.45" as="geometry" />
        </mxCell>
        <mxCell id="s0dWRtyi07ZF37cMcm2--64" value="" style="rounded=0;whiteSpace=wrap;html=1;strokeColor=none;fillColor=#000000;strokeWidth=1;movable=1;resizable=1;rotatable=1;deletable=1;editable=1;locked=0;connectable=1;container=0;" parent="qLM1yfY9q9ddXlRUWV7z-305" vertex="1">
          <mxGeometry x="18.5" y="7.95" width="85" height="36" as="geometry" />
        </mxCell>
        <mxCell id="qLM1yfY9q9ddXlRUWV7z-2" value="" style="group" parent="qLM1yfY9q9ddXlRUWV7z-305" vertex="1" connectable="0">
          <mxGeometry x="21.3" y="10.000000000000004" width="80" height="15" as="geometry" />
        </mxCell>
        <mxCell id="s0dWRtyi07ZF37cMcm2--1" value="" style="rounded=0;whiteSpace=wrap;html=1;strokeColor=none;fillColor=#222222;strokeWidth=1;movable=1;resizable=1;rotatable=1;deletable=1;editable=1;locked=0;connectable=1;container=0;" parent="qLM1yfY9q9ddXlRUWV7z-2" vertex="1">
          <mxGeometry width="80" height="15" as="geometry" />
        </mxCell>
        <mxCell id="s0dWRtyi07ZF37cMcm2--23" value="" style="whiteSpace=wrap;html=1;rounded=0;strokeWidth=1;align=center;verticalAlign=middle;fontFamily=Helvetica;fontSize=12;fontColor=default;resizable=1;fillColor=#333333;strokeColor=none;container=0;" parent="qLM1yfY9q9ddXlRUWV7z-2" vertex="1">
          <mxGeometry x="1" y="4" width="66" height="7" as="geometry" />
        </mxCell>
        <mxCell id="s0dWRtyi07ZF37cMcm2--12" value="" style="shape=hexagon;perimeter=hexagonPerimeter2;whiteSpace=wrap;html=1;fixedSize=1;rounded=0;strokeWidth=1;align=center;verticalAlign=middle;fontFamily=Helvetica;fontSize=12;fontColor=default;resizable=1;fillColor=#111111;strokeColor=none;size=3.8021390374331503;container=0;" parent="qLM1yfY9q9ddXlRUWV7z-2" vertex="1">
          <mxGeometry x="10" y="1" width="16" height="6" as="geometry" />
        </mxCell>
        <mxCell id="s0dWRtyi07ZF37cMcm2--21" value="" style="whiteSpace=wrap;html=1;rounded=0;strokeWidth=1;align=center;verticalAlign=middle;fontFamily=Helvetica;fontSize=12;fontColor=default;resizable=1;fillColor=#111111;strokeColor=none;container=0;" parent="qLM1yfY9q9ddXlRUWV7z-2" vertex="1">
          <mxGeometry x="67" y="1" width="5" height="13" as="geometry" />
        </mxCell>
        <mxCell id="s0dWRtyi07ZF37cMcm2--22" value="" style="whiteSpace=wrap;html=1;rounded=0;strokeWidth=1;align=center;verticalAlign=middle;fontFamily=Helvetica;fontSize=12;fontColor=default;resizable=1;fillColor=#333333;strokeColor=none;container=0;" parent="qLM1yfY9q9ddXlRUWV7z-2" vertex="1">
          <mxGeometry x="72" y="1" width="4" height="13" as="geometry" />
        </mxCell>
        <mxCell id="s0dWRtyi07ZF37cMcm2--25" value="" style="triangle;whiteSpace=wrap;html=1;strokeColor=#111111;rounded=0;strokeWidth=0.1;align=center;verticalAlign=middle;fontFamily=Helvetica;fontSize=12;fontColor=default;resizable=1;fillColor=#333333;rotation=-180;container=0;" parent="qLM1yfY9q9ddXlRUWV7z-2" vertex="1">
          <mxGeometry x="72.5" y="6" width="3" height="3" as="geometry" />
        </mxCell>
        <mxCell id="s0dWRtyi07ZF37cMcm2--27" value="" style="shape=hexagon;perimeter=hexagonPerimeter2;whiteSpace=wrap;html=1;fixedSize=1;rounded=0;strokeWidth=1;align=center;verticalAlign=middle;fontFamily=Helvetica;fontSize=12;fontColor=default;resizable=1;fillColor=#111111;strokeColor=none;size=3.8021390374331503;container=0;" parent="qLM1yfY9q9ddXlRUWV7z-2" vertex="1">
          <mxGeometry x="10" y="8" width="16" height="6" as="geometry" />
        </mxCell>
        <mxCell id="s0dWRtyi07ZF37cMcm2--28" value="" style="shape=hexagon;perimeter=hexagonPerimeter2;whiteSpace=wrap;html=1;fixedSize=1;rounded=0;strokeWidth=1;align=center;verticalAlign=middle;fontFamily=Helvetica;fontSize=12;fontColor=default;resizable=1;fillColor=#111111;strokeColor=none;size=3.8021390374331503;container=0;" parent="qLM1yfY9q9ddXlRUWV7z-2" vertex="1">
          <mxGeometry x="23" y="4.5" width="16" height="6" as="geometry" />
        </mxCell>
        <mxCell id="s0dWRtyi07ZF37cMcm2--29" value="" style="shape=hexagon;perimeter=hexagonPerimeter2;whiteSpace=wrap;html=1;fixedSize=1;rounded=0;strokeWidth=1;align=center;verticalAlign=middle;fontFamily=Helvetica;fontSize=12;fontColor=default;resizable=1;fillColor=#111111;strokeColor=none;size=3.8021390374331503;container=0;" parent="qLM1yfY9q9ddXlRUWV7z-2" vertex="1">
          <mxGeometry x="36" y="8" width="16" height="6" as="geometry" />
        </mxCell>
        <mxCell id="s0dWRtyi07ZF37cMcm2--30" value="" style="shape=hexagon;perimeter=hexagonPerimeter2;whiteSpace=wrap;html=1;fixedSize=1;rounded=0;strokeWidth=1;align=center;verticalAlign=middle;fontFamily=Helvetica;fontSize=12;fontColor=default;resizable=1;fillColor=#111111;strokeColor=none;size=3.8021390374331503;container=0;" parent="qLM1yfY9q9ddXlRUWV7z-2" vertex="1">
          <mxGeometry x="36" y="1" width="16" height="6" as="geometry" />
        </mxCell>
        <mxCell id="s0dWRtyi07ZF37cMcm2--34" value="" style="shape=trapezoid;perimeter=trapezoidPerimeter;whiteSpace=wrap;html=1;fixedSize=1;rounded=0;strokeWidth=1;align=center;verticalAlign=middle;fontFamily=Helvetica;fontSize=12;fontColor=default;resizable=1;fillColor=#111111;strokeColor=none;size=3.799999999999997;container=0;" parent="qLM1yfY9q9ddXlRUWV7z-2" vertex="1">
          <mxGeometry x="23" y="11.5" width="16" height="3" as="geometry" />
        </mxCell>
        <mxCell id="s0dWRtyi07ZF37cMcm2--35" value="" style="shape=trapezoid;perimeter=trapezoidPerimeter;whiteSpace=wrap;html=1;fixedSize=1;rounded=0;strokeWidth=1;align=center;verticalAlign=middle;fontFamily=Helvetica;fontSize=12;fontColor=default;resizable=1;fillColor=#111111;strokeColor=none;size=3.799999999999997;flipV=1;container=0;" parent="qLM1yfY9q9ddXlRUWV7z-2" vertex="1">
          <mxGeometry x="23" y="0.5" width="16" height="3" as="geometry" />
        </mxCell>
        <mxCell id="s0dWRtyi07ZF37cMcm2--39" value="" style="rounded=1;whiteSpace=wrap;html=1;strokeColor=none;fillColor=#008a00;fontColor=#ffffff;container=0;" parent="qLM1yfY9q9ddXlRUWV7z-2" vertex="1">
          <mxGeometry x="76.5" y="10" width="2" height="3" as="geometry" />
        </mxCell>
        <mxCell id="s0dWRtyi07ZF37cMcm2--40" value="" style="rounded=1;whiteSpace=wrap;html=1;strokeColor=none;fillColor=#0050ef;fontColor=#ffffff;container=0;" parent="qLM1yfY9q9ddXlRUWV7z-2" vertex="1">
          <mxGeometry x="76.5" y="2" width="2" height="3" as="geometry" />
        </mxCell>
        <mxCell id="jYugRQpqX03XuYQ0I7Gw-283" value="" style="shape=loopLimit;whiteSpace=wrap;html=1;rounded=0;strokeWidth=1;align=center;verticalAlign=middle;fontFamily=Helvetica;fontSize=12;fontColor=default;resizable=1;fillColor=#111111;strokeColor=none;rotation=90;size=4;container=0;" parent="qLM1yfY9q9ddXlRUWV7z-2" vertex="1">
          <mxGeometry x="-2.5" y="2.5" width="15" height="10" as="geometry" />
        </mxCell>
        <mxCell id="jYugRQpqX03XuYQ0I7Gw-284" value="" style="shape=hexagon;perimeter=hexagonPerimeter2;whiteSpace=wrap;html=1;fixedSize=1;rounded=0;strokeWidth=1;align=center;verticalAlign=middle;fontFamily=Helvetica;fontSize=12;fontColor=default;resizable=1;fillColor=#111111;strokeColor=none;size=3.8021390374331503;container=0;" parent="qLM1yfY9q9ddXlRUWV7z-2" vertex="1">
          <mxGeometry x="49" y="4.5" width="16" height="6" as="geometry" />
        </mxCell>
        <mxCell id="jYugRQpqX03XuYQ0I7Gw-285" value="" style="shape=trapezoid;perimeter=trapezoidPerimeter;whiteSpace=wrap;html=1;fixedSize=1;rounded=0;strokeWidth=1;align=center;verticalAlign=middle;fontFamily=Helvetica;fontSize=12;fontColor=default;resizable=1;fillColor=#111111;strokeColor=none;size=3.799999999999997;container=0;" parent="qLM1yfY9q9ddXlRUWV7z-2" vertex="1">
          <mxGeometry x="49" y="11.5" width="16" height="3" as="geometry" />
        </mxCell>
        <mxCell id="jYugRQpqX03XuYQ0I7Gw-286" value="" style="shape=trapezoid;perimeter=trapezoidPerimeter;whiteSpace=wrap;html=1;fixedSize=1;rounded=0;strokeWidth=1;align=center;verticalAlign=middle;fontFamily=Helvetica;fontSize=12;fontColor=default;resizable=1;fillColor=#111111;strokeColor=none;size=3.799999999999997;flipV=1;container=0;" parent="qLM1yfY9q9ddXlRUWV7z-2" vertex="1">
          <mxGeometry x="49" y="0.5" width="16" height="3" as="geometry" />
        </mxCell>
        <mxCell id="s0dWRtyi07ZF37cMcm2--38" value="" style="whiteSpace=wrap;html=1;rounded=0;strokeWidth=1;align=center;verticalAlign=middle;fontFamily=Helvetica;fontSize=12;fontColor=default;resizable=1;fillColor=#222222;strokeColor=none;container=0;" parent="qLM1yfY9q9ddXlRUWV7z-2" vertex="1">
          <mxGeometry x="11" width="60.5" height="1" as="geometry" />
        </mxCell>
        <mxCell id="s0dWRtyi07ZF37cMcm2--37" value="" style="whiteSpace=wrap;html=1;rounded=0;strokeWidth=1;align=center;verticalAlign=middle;fontFamily=Helvetica;fontSize=12;fontColor=default;resizable=1;fillColor=#222222;strokeColor=none;container=0;" parent="qLM1yfY9q9ddXlRUWV7z-2" vertex="1">
          <mxGeometry x="14" y="14" width="58.5" height="1" as="geometry" />
        </mxCell>
        <mxCell id="y5vkwGOPZt_xuMyuW4bd-1" value="" style="triangle;whiteSpace=wrap;html=1;rounded=0;strokeWidth=0.01;align=center;verticalAlign=middle;fontFamily=Helvetica;fontSize=12;fontColor=default;resizable=1;fillColor=#111111;strokeColor=none;direction=west;container=0;rotation=0;" parent="qLM1yfY9q9ddXlRUWV7z-2" vertex="1">
          <mxGeometry x="62.2" y="1" width="3.8" height="6" as="geometry" />
        </mxCell>
        <mxCell id="y5vkwGOPZt_xuMyuW4bd-3" value="" style="triangle;whiteSpace=wrap;html=1;rounded=0;strokeWidth=0.01;align=center;verticalAlign=middle;fontFamily=Helvetica;fontSize=12;fontColor=default;resizable=1;fillColor=#111111;strokeColor=none;direction=west;container=0;rotation=0;" parent="qLM1yfY9q9ddXlRUWV7z-2" vertex="1">
          <mxGeometry x="62.2" y="8" width="3.8" height="6" as="geometry" />
        </mxCell>
        <mxCell id="qLM1yfY9q9ddXlRUWV7z-3" value="" style="group" parent="qLM1yfY9q9ddXlRUWV7z-305" vertex="1" connectable="0">
          <mxGeometry x="21.3" y="27.000000000000004" width="80" height="15" as="geometry" />
        </mxCell>
        <mxCell id="qLM1yfY9q9ddXlRUWV7z-4" value="" style="rounded=0;whiteSpace=wrap;html=1;strokeColor=none;fillColor=#222222;strokeWidth=1;movable=1;resizable=1;rotatable=1;deletable=1;editable=1;locked=0;connectable=1;container=0;" parent="qLM1yfY9q9ddXlRUWV7z-3" vertex="1">
          <mxGeometry width="80" height="15" as="geometry" />
        </mxCell>
        <mxCell id="qLM1yfY9q9ddXlRUWV7z-5" value="" style="whiteSpace=wrap;html=1;rounded=0;strokeWidth=1;align=center;verticalAlign=middle;fontFamily=Helvetica;fontSize=12;fontColor=default;resizable=1;fillColor=#333333;strokeColor=none;container=0;" parent="qLM1yfY9q9ddXlRUWV7z-3" vertex="1">
          <mxGeometry x="1" y="4" width="66" height="7" as="geometry" />
        </mxCell>
        <mxCell id="qLM1yfY9q9ddXlRUWV7z-6" value="" style="shape=hexagon;perimeter=hexagonPerimeter2;whiteSpace=wrap;html=1;fixedSize=1;rounded=0;strokeWidth=1;align=center;verticalAlign=middle;fontFamily=Helvetica;fontSize=12;fontColor=default;resizable=1;fillColor=#111111;strokeColor=none;size=3.8021390374331503;container=0;" parent="qLM1yfY9q9ddXlRUWV7z-3" vertex="1">
          <mxGeometry x="10" y="1" width="16" height="6" as="geometry" />
        </mxCell>
        <mxCell id="qLM1yfY9q9ddXlRUWV7z-7" value="" style="whiteSpace=wrap;html=1;rounded=0;strokeWidth=1;align=center;verticalAlign=middle;fontFamily=Helvetica;fontSize=12;fontColor=default;resizable=1;fillColor=#111111;strokeColor=none;container=0;" parent="qLM1yfY9q9ddXlRUWV7z-3" vertex="1">
          <mxGeometry x="67" y="1" width="5" height="13" as="geometry" />
        </mxCell>
        <mxCell id="qLM1yfY9q9ddXlRUWV7z-8" value="" style="whiteSpace=wrap;html=1;rounded=0;strokeWidth=1;align=center;verticalAlign=middle;fontFamily=Helvetica;fontSize=12;fontColor=default;resizable=1;fillColor=#333333;strokeColor=none;container=0;" parent="qLM1yfY9q9ddXlRUWV7z-3" vertex="1">
          <mxGeometry x="72" y="1" width="4" height="13" as="geometry" />
        </mxCell>
        <mxCell id="qLM1yfY9q9ddXlRUWV7z-9" value="" style="triangle;whiteSpace=wrap;html=1;strokeColor=#111111;rounded=0;strokeWidth=0.1;align=center;verticalAlign=middle;fontFamily=Helvetica;fontSize=12;fontColor=default;resizable=1;fillColor=#333333;rotation=-180;container=0;" parent="qLM1yfY9q9ddXlRUWV7z-3" vertex="1">
          <mxGeometry x="72.5" y="6" width="3" height="3" as="geometry" />
        </mxCell>
        <mxCell id="qLM1yfY9q9ddXlRUWV7z-10" value="" style="shape=hexagon;perimeter=hexagonPerimeter2;whiteSpace=wrap;html=1;fixedSize=1;rounded=0;strokeWidth=1;align=center;verticalAlign=middle;fontFamily=Helvetica;fontSize=12;fontColor=default;resizable=1;fillColor=#111111;strokeColor=none;size=3.8021390374331503;container=0;" parent="qLM1yfY9q9ddXlRUWV7z-3" vertex="1">
          <mxGeometry x="10" y="8" width="16" height="6" as="geometry" />
        </mxCell>
        <mxCell id="qLM1yfY9q9ddXlRUWV7z-11" value="" style="shape=hexagon;perimeter=hexagonPerimeter2;whiteSpace=wrap;html=1;fixedSize=1;rounded=0;strokeWidth=1;align=center;verticalAlign=middle;fontFamily=Helvetica;fontSize=12;fontColor=default;resizable=1;fillColor=#111111;strokeColor=none;size=3.8021390374331503;container=0;" parent="qLM1yfY9q9ddXlRUWV7z-3" vertex="1">
          <mxGeometry x="23" y="4.5" width="16" height="6" as="geometry" />
        </mxCell>
        <mxCell id="qLM1yfY9q9ddXlRUWV7z-12" value="" style="shape=hexagon;perimeter=hexagonPerimeter2;whiteSpace=wrap;html=1;fixedSize=1;rounded=0;strokeWidth=1;align=center;verticalAlign=middle;fontFamily=Helvetica;fontSize=12;fontColor=default;resizable=1;fillColor=#111111;strokeColor=none;size=3.8021390374331503;container=0;" parent="qLM1yfY9q9ddXlRUWV7z-3" vertex="1">
          <mxGeometry x="36" y="8" width="16" height="6" as="geometry" />
        </mxCell>
        <mxCell id="qLM1yfY9q9ddXlRUWV7z-13" value="" style="shape=hexagon;perimeter=hexagonPerimeter2;whiteSpace=wrap;html=1;fixedSize=1;rounded=0;strokeWidth=1;align=center;verticalAlign=middle;fontFamily=Helvetica;fontSize=12;fontColor=default;resizable=1;fillColor=#111111;strokeColor=none;size=3.8021390374331503;container=0;" parent="qLM1yfY9q9ddXlRUWV7z-3" vertex="1">
          <mxGeometry x="36" y="1" width="16" height="6" as="geometry" />
        </mxCell>
        <mxCell id="qLM1yfY9q9ddXlRUWV7z-14" value="" style="shape=trapezoid;perimeter=trapezoidPerimeter;whiteSpace=wrap;html=1;fixedSize=1;rounded=0;strokeWidth=1;align=center;verticalAlign=middle;fontFamily=Helvetica;fontSize=12;fontColor=default;resizable=1;fillColor=#111111;strokeColor=none;size=3.799999999999997;container=0;" parent="qLM1yfY9q9ddXlRUWV7z-3" vertex="1">
          <mxGeometry x="23" y="11.5" width="16" height="3" as="geometry" />
        </mxCell>
        <mxCell id="qLM1yfY9q9ddXlRUWV7z-15" value="" style="shape=trapezoid;perimeter=trapezoidPerimeter;whiteSpace=wrap;html=1;fixedSize=1;rounded=0;strokeWidth=1;align=center;verticalAlign=middle;fontFamily=Helvetica;fontSize=12;fontColor=default;resizable=1;fillColor=#111111;strokeColor=none;size=3.799999999999997;flipV=1;container=0;" parent="qLM1yfY9q9ddXlRUWV7z-3" vertex="1">
          <mxGeometry x="23" y="0.5" width="16" height="3" as="geometry" />
        </mxCell>
        <mxCell id="qLM1yfY9q9ddXlRUWV7z-16" value="" style="rounded=1;whiteSpace=wrap;html=1;strokeColor=none;fillColor=#008a00;fontColor=#ffffff;container=0;" parent="qLM1yfY9q9ddXlRUWV7z-3" vertex="1">
          <mxGeometry x="76.5" y="10" width="2" height="3" as="geometry" />
        </mxCell>
        <mxCell id="qLM1yfY9q9ddXlRUWV7z-17" value="" style="rounded=1;whiteSpace=wrap;html=1;strokeColor=none;fillColor=#0050ef;fontColor=#ffffff;container=0;" parent="qLM1yfY9q9ddXlRUWV7z-3" vertex="1">
          <mxGeometry x="76.5" y="2" width="2" height="3" as="geometry" />
        </mxCell>
        <mxCell id="qLM1yfY9q9ddXlRUWV7z-18" value="" style="shape=loopLimit;whiteSpace=wrap;html=1;rounded=0;strokeWidth=1;align=center;verticalAlign=middle;fontFamily=Helvetica;fontSize=12;fontColor=default;resizable=1;fillColor=#111111;strokeColor=none;rotation=90;size=4;container=0;" parent="qLM1yfY9q9ddXlRUWV7z-3" vertex="1">
          <mxGeometry x="-2.5" y="2.5" width="15" height="10" as="geometry" />
        </mxCell>
        <mxCell id="qLM1yfY9q9ddXlRUWV7z-19" value="" style="shape=hexagon;perimeter=hexagonPerimeter2;whiteSpace=wrap;html=1;fixedSize=1;rounded=0;strokeWidth=1;align=center;verticalAlign=middle;fontFamily=Helvetica;fontSize=12;fontColor=default;resizable=1;fillColor=#111111;strokeColor=none;size=3.8021390374331503;container=0;" parent="qLM1yfY9q9ddXlRUWV7z-3" vertex="1">
          <mxGeometry x="49" y="4.5" width="16" height="6" as="geometry" />
        </mxCell>
        <mxCell id="qLM1yfY9q9ddXlRUWV7z-20" value="" style="shape=trapezoid;perimeter=trapezoidPerimeter;whiteSpace=wrap;html=1;fixedSize=1;rounded=0;strokeWidth=1;align=center;verticalAlign=middle;fontFamily=Helvetica;fontSize=12;fontColor=default;resizable=1;fillColor=#111111;strokeColor=none;size=3.799999999999997;container=0;" parent="qLM1yfY9q9ddXlRUWV7z-3" vertex="1">
          <mxGeometry x="49" y="11.5" width="16" height="3" as="geometry" />
        </mxCell>
        <mxCell id="qLM1yfY9q9ddXlRUWV7z-21" value="" style="shape=trapezoid;perimeter=trapezoidPerimeter;whiteSpace=wrap;html=1;fixedSize=1;rounded=0;strokeWidth=1;align=center;verticalAlign=middle;fontFamily=Helvetica;fontSize=12;fontColor=default;resizable=1;fillColor=#111111;strokeColor=none;size=3.799999999999997;flipV=1;container=0;" parent="qLM1yfY9q9ddXlRUWV7z-3" vertex="1">
          <mxGeometry x="49" y="0.5" width="16" height="3" as="geometry" />
        </mxCell>
        <mxCell id="qLM1yfY9q9ddXlRUWV7z-22" value="" style="whiteSpace=wrap;html=1;rounded=0;strokeWidth=1;align=center;verticalAlign=middle;fontFamily=Helvetica;fontSize=12;fontColor=default;resizable=1;fillColor=#222222;strokeColor=none;container=0;" parent="qLM1yfY9q9ddXlRUWV7z-3" vertex="1">
          <mxGeometry x="11" width="60.5" height="1" as="geometry" />
        </mxCell>
        <mxCell id="qLM1yfY9q9ddXlRUWV7z-23" value="" style="whiteSpace=wrap;html=1;rounded=0;strokeWidth=1;align=center;verticalAlign=middle;fontFamily=Helvetica;fontSize=12;fontColor=default;resizable=1;fillColor=#222222;strokeColor=none;container=0;" parent="qLM1yfY9q9ddXlRUWV7z-3" vertex="1">
          <mxGeometry x="14" y="14" width="58.5" height="1" as="geometry" />
        </mxCell>
        <mxCell id="qLM1yfY9q9ddXlRUWV7z-24" value="" style="triangle;whiteSpace=wrap;html=1;rounded=0;strokeWidth=0.01;align=center;verticalAlign=middle;fontFamily=Helvetica;fontSize=12;fontColor=default;resizable=1;fillColor=#111111;strokeColor=none;direction=west;container=0;rotation=0;" parent="qLM1yfY9q9ddXlRUWV7z-3" vertex="1">
          <mxGeometry x="62.2" y="1" width="3.8" height="6" as="geometry" />
        </mxCell>
        <mxCell id="qLM1yfY9q9ddXlRUWV7z-25" value="" style="triangle;whiteSpace=wrap;html=1;rounded=0;strokeWidth=0.01;align=center;verticalAlign=middle;fontFamily=Helvetica;fontSize=12;fontColor=default;resizable=1;fillColor=#111111;strokeColor=none;direction=west;container=0;rotation=0;" parent="qLM1yfY9q9ddXlRUWV7z-3" vertex="1">
          <mxGeometry x="62.2" y="8" width="3.8" height="6" as="geometry" />
        </mxCell>
        <mxCell id="qLM1yfY9q9ddXlRUWV7z-26" value="" style="rounded=0;whiteSpace=wrap;html=1;strokeColor=none;fillColor=#000000;strokeWidth=1;movable=1;resizable=1;rotatable=1;deletable=1;editable=1;locked=0;connectable=1;container=0;" parent="qLM1yfY9q9ddXlRUWV7z-305" vertex="1">
          <mxGeometry x="109.3" y="7.95" width="84" height="36" as="geometry" />
        </mxCell>
        <mxCell id="qLM1yfY9q9ddXlRUWV7z-27" value="" style="group" parent="qLM1yfY9q9ddXlRUWV7z-305" vertex="1" connectable="0">
          <mxGeometry x="111.3" y="10.000000000000004" width="80" height="15" as="geometry" />
        </mxCell>
        <mxCell id="qLM1yfY9q9ddXlRUWV7z-28" value="" style="rounded=0;whiteSpace=wrap;html=1;strokeColor=none;fillColor=#222222;strokeWidth=1;movable=1;resizable=1;rotatable=1;deletable=1;editable=1;locked=0;connectable=1;container=0;" parent="qLM1yfY9q9ddXlRUWV7z-27" vertex="1">
          <mxGeometry width="80" height="15" as="geometry" />
        </mxCell>
        <mxCell id="qLM1yfY9q9ddXlRUWV7z-29" value="" style="whiteSpace=wrap;html=1;rounded=0;strokeWidth=1;align=center;verticalAlign=middle;fontFamily=Helvetica;fontSize=12;fontColor=default;resizable=1;fillColor=#333333;strokeColor=none;container=0;" parent="qLM1yfY9q9ddXlRUWV7z-27" vertex="1">
          <mxGeometry x="1" y="4" width="66" height="7" as="geometry" />
        </mxCell>
        <mxCell id="qLM1yfY9q9ddXlRUWV7z-30" value="" style="shape=hexagon;perimeter=hexagonPerimeter2;whiteSpace=wrap;html=1;fixedSize=1;rounded=0;strokeWidth=1;align=center;verticalAlign=middle;fontFamily=Helvetica;fontSize=12;fontColor=default;resizable=1;fillColor=#111111;strokeColor=none;size=3.8021390374331503;container=0;" parent="qLM1yfY9q9ddXlRUWV7z-27" vertex="1">
          <mxGeometry x="10" y="1" width="16" height="6" as="geometry" />
        </mxCell>
        <mxCell id="qLM1yfY9q9ddXlRUWV7z-31" value="" style="whiteSpace=wrap;html=1;rounded=0;strokeWidth=1;align=center;verticalAlign=middle;fontFamily=Helvetica;fontSize=12;fontColor=default;resizable=1;fillColor=#111111;strokeColor=none;container=0;" parent="qLM1yfY9q9ddXlRUWV7z-27" vertex="1">
          <mxGeometry x="67" y="1" width="5" height="13" as="geometry" />
        </mxCell>
        <mxCell id="qLM1yfY9q9ddXlRUWV7z-32" value="" style="whiteSpace=wrap;html=1;rounded=0;strokeWidth=1;align=center;verticalAlign=middle;fontFamily=Helvetica;fontSize=12;fontColor=default;resizable=1;fillColor=#333333;strokeColor=none;container=0;" parent="qLM1yfY9q9ddXlRUWV7z-27" vertex="1">
          <mxGeometry x="72" y="1" width="4" height="13" as="geometry" />
        </mxCell>
        <mxCell id="qLM1yfY9q9ddXlRUWV7z-33" value="" style="triangle;whiteSpace=wrap;html=1;strokeColor=#111111;rounded=0;strokeWidth=0.1;align=center;verticalAlign=middle;fontFamily=Helvetica;fontSize=12;fontColor=default;resizable=1;fillColor=#333333;rotation=-180;container=0;" parent="qLM1yfY9q9ddXlRUWV7z-27" vertex="1">
          <mxGeometry x="72.5" y="6" width="3" height="3" as="geometry" />
        </mxCell>
        <mxCell id="qLM1yfY9q9ddXlRUWV7z-34" value="" style="shape=hexagon;perimeter=hexagonPerimeter2;whiteSpace=wrap;html=1;fixedSize=1;rounded=0;strokeWidth=1;align=center;verticalAlign=middle;fontFamily=Helvetica;fontSize=12;fontColor=default;resizable=1;fillColor=#111111;strokeColor=none;size=3.8021390374331503;container=0;" parent="qLM1yfY9q9ddXlRUWV7z-27" vertex="1">
          <mxGeometry x="10" y="8" width="16" height="6" as="geometry" />
        </mxCell>
        <mxCell id="qLM1yfY9q9ddXlRUWV7z-35" value="" style="shape=hexagon;perimeter=hexagonPerimeter2;whiteSpace=wrap;html=1;fixedSize=1;rounded=0;strokeWidth=1;align=center;verticalAlign=middle;fontFamily=Helvetica;fontSize=12;fontColor=default;resizable=1;fillColor=#111111;strokeColor=none;size=3.8021390374331503;container=0;" parent="qLM1yfY9q9ddXlRUWV7z-27" vertex="1">
          <mxGeometry x="23" y="4.5" width="16" height="6" as="geometry" />
        </mxCell>
        <mxCell id="qLM1yfY9q9ddXlRUWV7z-36" value="" style="shape=hexagon;perimeter=hexagonPerimeter2;whiteSpace=wrap;html=1;fixedSize=1;rounded=0;strokeWidth=1;align=center;verticalAlign=middle;fontFamily=Helvetica;fontSize=12;fontColor=default;resizable=1;fillColor=#111111;strokeColor=none;size=3.8021390374331503;container=0;" parent="qLM1yfY9q9ddXlRUWV7z-27" vertex="1">
          <mxGeometry x="36" y="8" width="16" height="6" as="geometry" />
        </mxCell>
        <mxCell id="qLM1yfY9q9ddXlRUWV7z-37" value="" style="shape=hexagon;perimeter=hexagonPerimeter2;whiteSpace=wrap;html=1;fixedSize=1;rounded=0;strokeWidth=1;align=center;verticalAlign=middle;fontFamily=Helvetica;fontSize=12;fontColor=default;resizable=1;fillColor=#111111;strokeColor=none;size=3.8021390374331503;container=0;" parent="qLM1yfY9q9ddXlRUWV7z-27" vertex="1">
          <mxGeometry x="36" y="1" width="16" height="6" as="geometry" />
        </mxCell>
        <mxCell id="qLM1yfY9q9ddXlRUWV7z-38" value="" style="shape=trapezoid;perimeter=trapezoidPerimeter;whiteSpace=wrap;html=1;fixedSize=1;rounded=0;strokeWidth=1;align=center;verticalAlign=middle;fontFamily=Helvetica;fontSize=12;fontColor=default;resizable=1;fillColor=#111111;strokeColor=none;size=3.799999999999997;container=0;" parent="qLM1yfY9q9ddXlRUWV7z-27" vertex="1">
          <mxGeometry x="23" y="11.5" width="16" height="3" as="geometry" />
        </mxCell>
        <mxCell id="qLM1yfY9q9ddXlRUWV7z-39" value="" style="shape=trapezoid;perimeter=trapezoidPerimeter;whiteSpace=wrap;html=1;fixedSize=1;rounded=0;strokeWidth=1;align=center;verticalAlign=middle;fontFamily=Helvetica;fontSize=12;fontColor=default;resizable=1;fillColor=#111111;strokeColor=none;size=3.799999999999997;flipV=1;container=0;" parent="qLM1yfY9q9ddXlRUWV7z-27" vertex="1">
          <mxGeometry x="23" y="0.5" width="16" height="3" as="geometry" />
        </mxCell>
        <mxCell id="qLM1yfY9q9ddXlRUWV7z-40" value="" style="rounded=1;whiteSpace=wrap;html=1;strokeColor=none;fillColor=#008a00;fontColor=#ffffff;container=0;" parent="qLM1yfY9q9ddXlRUWV7z-27" vertex="1">
          <mxGeometry x="76.5" y="10" width="2" height="3" as="geometry" />
        </mxCell>
        <mxCell id="qLM1yfY9q9ddXlRUWV7z-41" value="" style="rounded=1;whiteSpace=wrap;html=1;strokeColor=none;fillColor=#0050ef;fontColor=#ffffff;container=0;" parent="qLM1yfY9q9ddXlRUWV7z-27" vertex="1">
          <mxGeometry x="76.5" y="2" width="2" height="3" as="geometry" />
        </mxCell>
        <mxCell id="qLM1yfY9q9ddXlRUWV7z-42" value="" style="shape=loopLimit;whiteSpace=wrap;html=1;rounded=0;strokeWidth=1;align=center;verticalAlign=middle;fontFamily=Helvetica;fontSize=12;fontColor=default;resizable=1;fillColor=#111111;strokeColor=none;rotation=90;size=4;container=0;" parent="qLM1yfY9q9ddXlRUWV7z-27" vertex="1">
          <mxGeometry x="-2.5" y="2.5" width="15" height="10" as="geometry" />
        </mxCell>
        <mxCell id="qLM1yfY9q9ddXlRUWV7z-43" value="" style="shape=hexagon;perimeter=hexagonPerimeter2;whiteSpace=wrap;html=1;fixedSize=1;rounded=0;strokeWidth=1;align=center;verticalAlign=middle;fontFamily=Helvetica;fontSize=12;fontColor=default;resizable=1;fillColor=#111111;strokeColor=none;size=3.8021390374331503;container=0;" parent="qLM1yfY9q9ddXlRUWV7z-27" vertex="1">
          <mxGeometry x="49" y="4.5" width="16" height="6" as="geometry" />
        </mxCell>
        <mxCell id="qLM1yfY9q9ddXlRUWV7z-44" value="" style="shape=trapezoid;perimeter=trapezoidPerimeter;whiteSpace=wrap;html=1;fixedSize=1;rounded=0;strokeWidth=1;align=center;verticalAlign=middle;fontFamily=Helvetica;fontSize=12;fontColor=default;resizable=1;fillColor=#111111;strokeColor=none;size=3.799999999999997;container=0;" parent="qLM1yfY9q9ddXlRUWV7z-27" vertex="1">
          <mxGeometry x="49" y="11.5" width="16" height="3" as="geometry" />
        </mxCell>
        <mxCell id="qLM1yfY9q9ddXlRUWV7z-45" value="" style="shape=trapezoid;perimeter=trapezoidPerimeter;whiteSpace=wrap;html=1;fixedSize=1;rounded=0;strokeWidth=1;align=center;verticalAlign=middle;fontFamily=Helvetica;fontSize=12;fontColor=default;resizable=1;fillColor=#111111;strokeColor=none;size=3.799999999999997;flipV=1;container=0;" parent="qLM1yfY9q9ddXlRUWV7z-27" vertex="1">
          <mxGeometry x="49" y="0.5" width="16" height="3" as="geometry" />
        </mxCell>
        <mxCell id="qLM1yfY9q9ddXlRUWV7z-46" value="" style="whiteSpace=wrap;html=1;rounded=0;strokeWidth=1;align=center;verticalAlign=middle;fontFamily=Helvetica;fontSize=12;fontColor=default;resizable=1;fillColor=#222222;strokeColor=none;container=0;" parent="qLM1yfY9q9ddXlRUWV7z-27" vertex="1">
          <mxGeometry x="11" width="60.5" height="1" as="geometry" />
        </mxCell>
        <mxCell id="qLM1yfY9q9ddXlRUWV7z-47" value="" style="whiteSpace=wrap;html=1;rounded=0;strokeWidth=1;align=center;verticalAlign=middle;fontFamily=Helvetica;fontSize=12;fontColor=default;resizable=1;fillColor=#222222;strokeColor=none;container=0;" parent="qLM1yfY9q9ddXlRUWV7z-27" vertex="1">
          <mxGeometry x="14" y="14" width="58.5" height="1" as="geometry" />
        </mxCell>
        <mxCell id="qLM1yfY9q9ddXlRUWV7z-48" value="" style="triangle;whiteSpace=wrap;html=1;rounded=0;strokeWidth=0.01;align=center;verticalAlign=middle;fontFamily=Helvetica;fontSize=12;fontColor=default;resizable=1;fillColor=#111111;strokeColor=none;direction=west;container=0;rotation=0;" parent="qLM1yfY9q9ddXlRUWV7z-27" vertex="1">
          <mxGeometry x="62.2" y="1" width="3.8" height="6" as="geometry" />
        </mxCell>
        <mxCell id="qLM1yfY9q9ddXlRUWV7z-49" value="" style="triangle;whiteSpace=wrap;html=1;rounded=0;strokeWidth=0.01;align=center;verticalAlign=middle;fontFamily=Helvetica;fontSize=12;fontColor=default;resizable=1;fillColor=#111111;strokeColor=none;direction=west;container=0;rotation=0;" parent="qLM1yfY9q9ddXlRUWV7z-27" vertex="1">
          <mxGeometry x="62.2" y="8" width="3.8" height="6" as="geometry" />
        </mxCell>
        <mxCell id="qLM1yfY9q9ddXlRUWV7z-50" value="" style="group" parent="qLM1yfY9q9ddXlRUWV7z-305" vertex="1" connectable="0">
          <mxGeometry x="111.3" y="27.000000000000004" width="80" height="15" as="geometry" />
        </mxCell>
        <mxCell id="qLM1yfY9q9ddXlRUWV7z-51" value="" style="rounded=0;whiteSpace=wrap;html=1;strokeColor=none;fillColor=#222222;strokeWidth=1;movable=1;resizable=1;rotatable=1;deletable=1;editable=1;locked=0;connectable=1;container=0;" parent="qLM1yfY9q9ddXlRUWV7z-50" vertex="1">
          <mxGeometry width="80" height="15" as="geometry" />
        </mxCell>
        <mxCell id="qLM1yfY9q9ddXlRUWV7z-52" value="" style="whiteSpace=wrap;html=1;rounded=0;strokeWidth=1;align=center;verticalAlign=middle;fontFamily=Helvetica;fontSize=12;fontColor=default;resizable=1;fillColor=#333333;strokeColor=none;container=0;" parent="qLM1yfY9q9ddXlRUWV7z-50" vertex="1">
          <mxGeometry x="1" y="4" width="66" height="7" as="geometry" />
        </mxCell>
        <mxCell id="qLM1yfY9q9ddXlRUWV7z-53" value="" style="shape=hexagon;perimeter=hexagonPerimeter2;whiteSpace=wrap;html=1;fixedSize=1;rounded=0;strokeWidth=1;align=center;verticalAlign=middle;fontFamily=Helvetica;fontSize=12;fontColor=default;resizable=1;fillColor=#111111;strokeColor=none;size=3.8021390374331503;container=0;" parent="qLM1yfY9q9ddXlRUWV7z-50" vertex="1">
          <mxGeometry x="10" y="1" width="16" height="6" as="geometry" />
        </mxCell>
        <mxCell id="qLM1yfY9q9ddXlRUWV7z-54" value="" style="whiteSpace=wrap;html=1;rounded=0;strokeWidth=1;align=center;verticalAlign=middle;fontFamily=Helvetica;fontSize=12;fontColor=default;resizable=1;fillColor=#111111;strokeColor=none;container=0;" parent="qLM1yfY9q9ddXlRUWV7z-50" vertex="1">
          <mxGeometry x="67" y="1" width="5" height="13" as="geometry" />
        </mxCell>
        <mxCell id="qLM1yfY9q9ddXlRUWV7z-55" value="" style="whiteSpace=wrap;html=1;rounded=0;strokeWidth=1;align=center;verticalAlign=middle;fontFamily=Helvetica;fontSize=12;fontColor=default;resizable=1;fillColor=#333333;strokeColor=none;container=0;" parent="qLM1yfY9q9ddXlRUWV7z-50" vertex="1">
          <mxGeometry x="72" y="1" width="4" height="13" as="geometry" />
        </mxCell>
        <mxCell id="qLM1yfY9q9ddXlRUWV7z-56" value="" style="triangle;whiteSpace=wrap;html=1;strokeColor=#111111;rounded=0;strokeWidth=0.1;align=center;verticalAlign=middle;fontFamily=Helvetica;fontSize=12;fontColor=default;resizable=1;fillColor=#333333;rotation=-180;container=0;" parent="qLM1yfY9q9ddXlRUWV7z-50" vertex="1">
          <mxGeometry x="72.5" y="6" width="3" height="3" as="geometry" />
        </mxCell>
        <mxCell id="qLM1yfY9q9ddXlRUWV7z-57" value="" style="shape=hexagon;perimeter=hexagonPerimeter2;whiteSpace=wrap;html=1;fixedSize=1;rounded=0;strokeWidth=1;align=center;verticalAlign=middle;fontFamily=Helvetica;fontSize=12;fontColor=default;resizable=1;fillColor=#111111;strokeColor=none;size=3.8021390374331503;container=0;" parent="qLM1yfY9q9ddXlRUWV7z-50" vertex="1">
          <mxGeometry x="10" y="8" width="16" height="6" as="geometry" />
        </mxCell>
        <mxCell id="qLM1yfY9q9ddXlRUWV7z-58" value="" style="shape=hexagon;perimeter=hexagonPerimeter2;whiteSpace=wrap;html=1;fixedSize=1;rounded=0;strokeWidth=1;align=center;verticalAlign=middle;fontFamily=Helvetica;fontSize=12;fontColor=default;resizable=1;fillColor=#111111;strokeColor=none;size=3.8021390374331503;container=0;" parent="qLM1yfY9q9ddXlRUWV7z-50" vertex="1">
          <mxGeometry x="23" y="4.5" width="16" height="6" as="geometry" />
        </mxCell>
        <mxCell id="qLM1yfY9q9ddXlRUWV7z-59" value="" style="shape=hexagon;perimeter=hexagonPerimeter2;whiteSpace=wrap;html=1;fixedSize=1;rounded=0;strokeWidth=1;align=center;verticalAlign=middle;fontFamily=Helvetica;fontSize=12;fontColor=default;resizable=1;fillColor=#111111;strokeColor=none;size=3.8021390374331503;container=0;" parent="qLM1yfY9q9ddXlRUWV7z-50" vertex="1">
          <mxGeometry x="36" y="8" width="16" height="6" as="geometry" />
        </mxCell>
        <mxCell id="qLM1yfY9q9ddXlRUWV7z-60" value="" style="shape=hexagon;perimeter=hexagonPerimeter2;whiteSpace=wrap;html=1;fixedSize=1;rounded=0;strokeWidth=1;align=center;verticalAlign=middle;fontFamily=Helvetica;fontSize=12;fontColor=default;resizable=1;fillColor=#111111;strokeColor=none;size=3.8021390374331503;container=0;" parent="qLM1yfY9q9ddXlRUWV7z-50" vertex="1">
          <mxGeometry x="36" y="1" width="16" height="6" as="geometry" />
        </mxCell>
        <mxCell id="qLM1yfY9q9ddXlRUWV7z-61" value="" style="shape=trapezoid;perimeter=trapezoidPerimeter;whiteSpace=wrap;html=1;fixedSize=1;rounded=0;strokeWidth=1;align=center;verticalAlign=middle;fontFamily=Helvetica;fontSize=12;fontColor=default;resizable=1;fillColor=#111111;strokeColor=none;size=3.799999999999997;container=0;" parent="qLM1yfY9q9ddXlRUWV7z-50" vertex="1">
          <mxGeometry x="23" y="11.5" width="16" height="3" as="geometry" />
        </mxCell>
        <mxCell id="qLM1yfY9q9ddXlRUWV7z-62" value="" style="shape=trapezoid;perimeter=trapezoidPerimeter;whiteSpace=wrap;html=1;fixedSize=1;rounded=0;strokeWidth=1;align=center;verticalAlign=middle;fontFamily=Helvetica;fontSize=12;fontColor=default;resizable=1;fillColor=#111111;strokeColor=none;size=3.799999999999997;flipV=1;container=0;" parent="qLM1yfY9q9ddXlRUWV7z-50" vertex="1">
          <mxGeometry x="23" y="0.5" width="16" height="3" as="geometry" />
        </mxCell>
        <mxCell id="qLM1yfY9q9ddXlRUWV7z-63" value="" style="rounded=1;whiteSpace=wrap;html=1;strokeColor=none;fillColor=#008a00;fontColor=#ffffff;container=0;" parent="qLM1yfY9q9ddXlRUWV7z-50" vertex="1">
          <mxGeometry x="76.5" y="10" width="2" height="3" as="geometry" />
        </mxCell>
        <mxCell id="qLM1yfY9q9ddXlRUWV7z-64" value="" style="rounded=1;whiteSpace=wrap;html=1;strokeColor=none;fillColor=#0050ef;fontColor=#ffffff;container=0;" parent="qLM1yfY9q9ddXlRUWV7z-50" vertex="1">
          <mxGeometry x="76.5" y="2" width="2" height="3" as="geometry" />
        </mxCell>
        <mxCell id="qLM1yfY9q9ddXlRUWV7z-65" value="" style="shape=loopLimit;whiteSpace=wrap;html=1;rounded=0;strokeWidth=1;align=center;verticalAlign=middle;fontFamily=Helvetica;fontSize=12;fontColor=default;resizable=1;fillColor=#111111;strokeColor=none;rotation=90;size=4;container=0;" parent="qLM1yfY9q9ddXlRUWV7z-50" vertex="1">
          <mxGeometry x="-2.5" y="2.5" width="15" height="10" as="geometry" />
        </mxCell>
        <mxCell id="qLM1yfY9q9ddXlRUWV7z-66" value="" style="shape=hexagon;perimeter=hexagonPerimeter2;whiteSpace=wrap;html=1;fixedSize=1;rounded=0;strokeWidth=1;align=center;verticalAlign=middle;fontFamily=Helvetica;fontSize=12;fontColor=default;resizable=1;fillColor=#111111;strokeColor=none;size=3.8021390374331503;container=0;" parent="qLM1yfY9q9ddXlRUWV7z-50" vertex="1">
          <mxGeometry x="49" y="4.5" width="16" height="6" as="geometry" />
        </mxCell>
        <mxCell id="qLM1yfY9q9ddXlRUWV7z-67" value="" style="shape=trapezoid;perimeter=trapezoidPerimeter;whiteSpace=wrap;html=1;fixedSize=1;rounded=0;strokeWidth=1;align=center;verticalAlign=middle;fontFamily=Helvetica;fontSize=12;fontColor=default;resizable=1;fillColor=#111111;strokeColor=none;size=3.799999999999997;container=0;" parent="qLM1yfY9q9ddXlRUWV7z-50" vertex="1">
          <mxGeometry x="49" y="11.5" width="16" height="3" as="geometry" />
        </mxCell>
        <mxCell id="qLM1yfY9q9ddXlRUWV7z-68" value="" style="shape=trapezoid;perimeter=trapezoidPerimeter;whiteSpace=wrap;html=1;fixedSize=1;rounded=0;strokeWidth=1;align=center;verticalAlign=middle;fontFamily=Helvetica;fontSize=12;fontColor=default;resizable=1;fillColor=#111111;strokeColor=none;size=3.799999999999997;flipV=1;container=0;" parent="qLM1yfY9q9ddXlRUWV7z-50" vertex="1">
          <mxGeometry x="49" y="0.5" width="16" height="3" as="geometry" />
        </mxCell>
        <mxCell id="qLM1yfY9q9ddXlRUWV7z-69" value="" style="whiteSpace=wrap;html=1;rounded=0;strokeWidth=1;align=center;verticalAlign=middle;fontFamily=Helvetica;fontSize=12;fontColor=default;resizable=1;fillColor=#222222;strokeColor=none;container=0;" parent="qLM1yfY9q9ddXlRUWV7z-50" vertex="1">
          <mxGeometry x="11" width="60.5" height="1" as="geometry" />
        </mxCell>
        <mxCell id="qLM1yfY9q9ddXlRUWV7z-70" value="" style="whiteSpace=wrap;html=1;rounded=0;strokeWidth=1;align=center;verticalAlign=middle;fontFamily=Helvetica;fontSize=12;fontColor=default;resizable=1;fillColor=#222222;strokeColor=none;container=0;" parent="qLM1yfY9q9ddXlRUWV7z-50" vertex="1">
          <mxGeometry x="14" y="14" width="58.5" height="1" as="geometry" />
        </mxCell>
        <mxCell id="qLM1yfY9q9ddXlRUWV7z-71" value="" style="triangle;whiteSpace=wrap;html=1;rounded=0;strokeWidth=0.01;align=center;verticalAlign=middle;fontFamily=Helvetica;fontSize=12;fontColor=default;resizable=1;fillColor=#111111;strokeColor=none;direction=west;container=0;rotation=0;" parent="qLM1yfY9q9ddXlRUWV7z-50" vertex="1">
          <mxGeometry x="62.2" y="1" width="3.8" height="6" as="geometry" />
        </mxCell>
        <mxCell id="qLM1yfY9q9ddXlRUWV7z-72" value="" style="triangle;whiteSpace=wrap;html=1;rounded=0;strokeWidth=0.01;align=center;verticalAlign=middle;fontFamily=Helvetica;fontSize=12;fontColor=default;resizable=1;fillColor=#111111;strokeColor=none;direction=west;container=0;rotation=0;" parent="qLM1yfY9q9ddXlRUWV7z-50" vertex="1">
          <mxGeometry x="62.2" y="8" width="3.8" height="6" as="geometry" />
        </mxCell>
        <mxCell id="qLM1yfY9q9ddXlRUWV7z-73" value="" style="rounded=0;whiteSpace=wrap;html=1;strokeColor=none;fillColor=#000000;strokeWidth=1;movable=1;resizable=1;rotatable=1;deletable=1;editable=1;locked=0;connectable=1;container=0;" parent="qLM1yfY9q9ddXlRUWV7z-305" vertex="1">
          <mxGeometry x="199.3" y="7.95" width="84" height="36" as="geometry" />
        </mxCell>
        <mxCell id="qLM1yfY9q9ddXlRUWV7z-74" value="" style="group" parent="qLM1yfY9q9ddXlRUWV7z-305" vertex="1" connectable="0">
          <mxGeometry x="201.3" y="10.000000000000004" width="80" height="15" as="geometry" />
        </mxCell>
        <mxCell id="qLM1yfY9q9ddXlRUWV7z-75" value="" style="rounded=0;whiteSpace=wrap;html=1;strokeColor=none;fillColor=#222222;strokeWidth=1;movable=1;resizable=1;rotatable=1;deletable=1;editable=1;locked=0;connectable=1;container=0;" parent="qLM1yfY9q9ddXlRUWV7z-74" vertex="1">
          <mxGeometry width="80" height="15" as="geometry" />
        </mxCell>
        <mxCell id="qLM1yfY9q9ddXlRUWV7z-76" value="" style="whiteSpace=wrap;html=1;rounded=0;strokeWidth=1;align=center;verticalAlign=middle;fontFamily=Helvetica;fontSize=12;fontColor=default;resizable=1;fillColor=#333333;strokeColor=none;container=0;" parent="qLM1yfY9q9ddXlRUWV7z-74" vertex="1">
          <mxGeometry x="1" y="4" width="66" height="7" as="geometry" />
        </mxCell>
        <mxCell id="qLM1yfY9q9ddXlRUWV7z-77" value="" style="shape=hexagon;perimeter=hexagonPerimeter2;whiteSpace=wrap;html=1;fixedSize=1;rounded=0;strokeWidth=1;align=center;verticalAlign=middle;fontFamily=Helvetica;fontSize=12;fontColor=default;resizable=1;fillColor=#111111;strokeColor=none;size=3.8021390374331503;container=0;" parent="qLM1yfY9q9ddXlRUWV7z-74" vertex="1">
          <mxGeometry x="10" y="1" width="16" height="6" as="geometry" />
        </mxCell>
        <mxCell id="qLM1yfY9q9ddXlRUWV7z-78" value="" style="whiteSpace=wrap;html=1;rounded=0;strokeWidth=1;align=center;verticalAlign=middle;fontFamily=Helvetica;fontSize=12;fontColor=default;resizable=1;fillColor=#111111;strokeColor=none;container=0;" parent="qLM1yfY9q9ddXlRUWV7z-74" vertex="1">
          <mxGeometry x="67" y="1" width="5" height="13" as="geometry" />
        </mxCell>
        <mxCell id="qLM1yfY9q9ddXlRUWV7z-79" value="" style="whiteSpace=wrap;html=1;rounded=0;strokeWidth=1;align=center;verticalAlign=middle;fontFamily=Helvetica;fontSize=12;fontColor=default;resizable=1;fillColor=#333333;strokeColor=none;container=0;" parent="qLM1yfY9q9ddXlRUWV7z-74" vertex="1">
          <mxGeometry x="72" y="1" width="4" height="13" as="geometry" />
        </mxCell>
        <mxCell id="qLM1yfY9q9ddXlRUWV7z-80" value="" style="triangle;whiteSpace=wrap;html=1;strokeColor=#111111;rounded=0;strokeWidth=0.1;align=center;verticalAlign=middle;fontFamily=Helvetica;fontSize=12;fontColor=default;resizable=1;fillColor=#333333;rotation=-180;container=0;" parent="qLM1yfY9q9ddXlRUWV7z-74" vertex="1">
          <mxGeometry x="72.5" y="6" width="3" height="3" as="geometry" />
        </mxCell>
        <mxCell id="qLM1yfY9q9ddXlRUWV7z-81" value="" style="shape=hexagon;perimeter=hexagonPerimeter2;whiteSpace=wrap;html=1;fixedSize=1;rounded=0;strokeWidth=1;align=center;verticalAlign=middle;fontFamily=Helvetica;fontSize=12;fontColor=default;resizable=1;fillColor=#111111;strokeColor=none;size=3.8021390374331503;container=0;" parent="qLM1yfY9q9ddXlRUWV7z-74" vertex="1">
          <mxGeometry x="10" y="8" width="16" height="6" as="geometry" />
        </mxCell>
        <mxCell id="qLM1yfY9q9ddXlRUWV7z-82" value="" style="shape=hexagon;perimeter=hexagonPerimeter2;whiteSpace=wrap;html=1;fixedSize=1;rounded=0;strokeWidth=1;align=center;verticalAlign=middle;fontFamily=Helvetica;fontSize=12;fontColor=default;resizable=1;fillColor=#111111;strokeColor=none;size=3.8021390374331503;container=0;" parent="qLM1yfY9q9ddXlRUWV7z-74" vertex="1">
          <mxGeometry x="23" y="4.5" width="16" height="6" as="geometry" />
        </mxCell>
        <mxCell id="qLM1yfY9q9ddXlRUWV7z-83" value="" style="shape=hexagon;perimeter=hexagonPerimeter2;whiteSpace=wrap;html=1;fixedSize=1;rounded=0;strokeWidth=1;align=center;verticalAlign=middle;fontFamily=Helvetica;fontSize=12;fontColor=default;resizable=1;fillColor=#111111;strokeColor=none;size=3.8021390374331503;container=0;" parent="qLM1yfY9q9ddXlRUWV7z-74" vertex="1">
          <mxGeometry x="36" y="8" width="16" height="6" as="geometry" />
        </mxCell>
        <mxCell id="qLM1yfY9q9ddXlRUWV7z-84" value="" style="shape=hexagon;perimeter=hexagonPerimeter2;whiteSpace=wrap;html=1;fixedSize=1;rounded=0;strokeWidth=1;align=center;verticalAlign=middle;fontFamily=Helvetica;fontSize=12;fontColor=default;resizable=1;fillColor=#111111;strokeColor=none;size=3.8021390374331503;container=0;" parent="qLM1yfY9q9ddXlRUWV7z-74" vertex="1">
          <mxGeometry x="36" y="1" width="16" height="6" as="geometry" />
        </mxCell>
        <mxCell id="qLM1yfY9q9ddXlRUWV7z-85" value="" style="shape=trapezoid;perimeter=trapezoidPerimeter;whiteSpace=wrap;html=1;fixedSize=1;rounded=0;strokeWidth=1;align=center;verticalAlign=middle;fontFamily=Helvetica;fontSize=12;fontColor=default;resizable=1;fillColor=#111111;strokeColor=none;size=3.799999999999997;container=0;" parent="qLM1yfY9q9ddXlRUWV7z-74" vertex="1">
          <mxGeometry x="23" y="11.5" width="16" height="3" as="geometry" />
        </mxCell>
        <mxCell id="qLM1yfY9q9ddXlRUWV7z-86" value="" style="shape=trapezoid;perimeter=trapezoidPerimeter;whiteSpace=wrap;html=1;fixedSize=1;rounded=0;strokeWidth=1;align=center;verticalAlign=middle;fontFamily=Helvetica;fontSize=12;fontColor=default;resizable=1;fillColor=#111111;strokeColor=none;size=3.799999999999997;flipV=1;container=0;" parent="qLM1yfY9q9ddXlRUWV7z-74" vertex="1">
          <mxGeometry x="23" y="0.5" width="16" height="3" as="geometry" />
        </mxCell>
        <mxCell id="qLM1yfY9q9ddXlRUWV7z-87" value="" style="rounded=1;whiteSpace=wrap;html=1;strokeColor=none;fillColor=#008a00;fontColor=#ffffff;container=0;" parent="qLM1yfY9q9ddXlRUWV7z-74" vertex="1">
          <mxGeometry x="76.5" y="10" width="2" height="3" as="geometry" />
        </mxCell>
        <mxCell id="qLM1yfY9q9ddXlRUWV7z-88" value="" style="rounded=1;whiteSpace=wrap;html=1;strokeColor=none;fillColor=#0050ef;fontColor=#ffffff;container=0;" parent="qLM1yfY9q9ddXlRUWV7z-74" vertex="1">
          <mxGeometry x="76.5" y="2" width="2" height="3" as="geometry" />
        </mxCell>
        <mxCell id="qLM1yfY9q9ddXlRUWV7z-89" value="" style="shape=loopLimit;whiteSpace=wrap;html=1;rounded=0;strokeWidth=1;align=center;verticalAlign=middle;fontFamily=Helvetica;fontSize=12;fontColor=default;resizable=1;fillColor=#111111;strokeColor=none;rotation=90;size=4;container=0;" parent="qLM1yfY9q9ddXlRUWV7z-74" vertex="1">
          <mxGeometry x="-2.5" y="2.5" width="15" height="10" as="geometry" />
        </mxCell>
        <mxCell id="qLM1yfY9q9ddXlRUWV7z-90" value="" style="shape=hexagon;perimeter=hexagonPerimeter2;whiteSpace=wrap;html=1;fixedSize=1;rounded=0;strokeWidth=1;align=center;verticalAlign=middle;fontFamily=Helvetica;fontSize=12;fontColor=default;resizable=1;fillColor=#111111;strokeColor=none;size=3.8021390374331503;container=0;" parent="qLM1yfY9q9ddXlRUWV7z-74" vertex="1">
          <mxGeometry x="49" y="4.5" width="16" height="6" as="geometry" />
        </mxCell>
        <mxCell id="qLM1yfY9q9ddXlRUWV7z-91" value="" style="shape=trapezoid;perimeter=trapezoidPerimeter;whiteSpace=wrap;html=1;fixedSize=1;rounded=0;strokeWidth=1;align=center;verticalAlign=middle;fontFamily=Helvetica;fontSize=12;fontColor=default;resizable=1;fillColor=#111111;strokeColor=none;size=3.799999999999997;container=0;" parent="qLM1yfY9q9ddXlRUWV7z-74" vertex="1">
          <mxGeometry x="49" y="11.5" width="16" height="3" as="geometry" />
        </mxCell>
        <mxCell id="qLM1yfY9q9ddXlRUWV7z-92" value="" style="shape=trapezoid;perimeter=trapezoidPerimeter;whiteSpace=wrap;html=1;fixedSize=1;rounded=0;strokeWidth=1;align=center;verticalAlign=middle;fontFamily=Helvetica;fontSize=12;fontColor=default;resizable=1;fillColor=#111111;strokeColor=none;size=3.799999999999997;flipV=1;container=0;" parent="qLM1yfY9q9ddXlRUWV7z-74" vertex="1">
          <mxGeometry x="49" y="0.5" width="16" height="3" as="geometry" />
        </mxCell>
        <mxCell id="qLM1yfY9q9ddXlRUWV7z-93" value="" style="whiteSpace=wrap;html=1;rounded=0;strokeWidth=1;align=center;verticalAlign=middle;fontFamily=Helvetica;fontSize=12;fontColor=default;resizable=1;fillColor=#222222;strokeColor=none;container=0;" parent="qLM1yfY9q9ddXlRUWV7z-74" vertex="1">
          <mxGeometry x="11" width="60.5" height="1" as="geometry" />
        </mxCell>
        <mxCell id="qLM1yfY9q9ddXlRUWV7z-94" value="" style="whiteSpace=wrap;html=1;rounded=0;strokeWidth=1;align=center;verticalAlign=middle;fontFamily=Helvetica;fontSize=12;fontColor=default;resizable=1;fillColor=#222222;strokeColor=none;container=0;" parent="qLM1yfY9q9ddXlRUWV7z-74" vertex="1">
          <mxGeometry x="14" y="14" width="58.5" height="1" as="geometry" />
        </mxCell>
        <mxCell id="qLM1yfY9q9ddXlRUWV7z-95" value="" style="triangle;whiteSpace=wrap;html=1;rounded=0;strokeWidth=0.01;align=center;verticalAlign=middle;fontFamily=Helvetica;fontSize=12;fontColor=default;resizable=1;fillColor=#111111;strokeColor=none;direction=west;container=0;rotation=0;" parent="qLM1yfY9q9ddXlRUWV7z-74" vertex="1">
          <mxGeometry x="62.2" y="1" width="3.8" height="6" as="geometry" />
        </mxCell>
        <mxCell id="qLM1yfY9q9ddXlRUWV7z-96" value="" style="triangle;whiteSpace=wrap;html=1;rounded=0;strokeWidth=0.01;align=center;verticalAlign=middle;fontFamily=Helvetica;fontSize=12;fontColor=default;resizable=1;fillColor=#111111;strokeColor=none;direction=west;container=0;rotation=0;" parent="qLM1yfY9q9ddXlRUWV7z-74" vertex="1">
          <mxGeometry x="62.2" y="8" width="3.8" height="6" as="geometry" />
        </mxCell>
        <mxCell id="qLM1yfY9q9ddXlRUWV7z-97" value="" style="group" parent="qLM1yfY9q9ddXlRUWV7z-305" vertex="1" connectable="0">
          <mxGeometry x="201.3" y="27.000000000000004" width="80" height="15" as="geometry" />
        </mxCell>
        <mxCell id="qLM1yfY9q9ddXlRUWV7z-98" value="" style="rounded=0;whiteSpace=wrap;html=1;strokeColor=none;fillColor=#222222;strokeWidth=1;movable=1;resizable=1;rotatable=1;deletable=1;editable=1;locked=0;connectable=1;container=0;" parent="qLM1yfY9q9ddXlRUWV7z-97" vertex="1">
          <mxGeometry width="80" height="15" as="geometry" />
        </mxCell>
        <mxCell id="qLM1yfY9q9ddXlRUWV7z-99" value="" style="whiteSpace=wrap;html=1;rounded=0;strokeWidth=1;align=center;verticalAlign=middle;fontFamily=Helvetica;fontSize=12;fontColor=default;resizable=1;fillColor=#333333;strokeColor=none;container=0;" parent="qLM1yfY9q9ddXlRUWV7z-97" vertex="1">
          <mxGeometry x="1" y="4" width="66" height="7" as="geometry" />
        </mxCell>
        <mxCell id="qLM1yfY9q9ddXlRUWV7z-100" value="" style="shape=hexagon;perimeter=hexagonPerimeter2;whiteSpace=wrap;html=1;fixedSize=1;rounded=0;strokeWidth=1;align=center;verticalAlign=middle;fontFamily=Helvetica;fontSize=12;fontColor=default;resizable=1;fillColor=#111111;strokeColor=none;size=3.8021390374331503;container=0;" parent="qLM1yfY9q9ddXlRUWV7z-97" vertex="1">
          <mxGeometry x="10" y="1" width="16" height="6" as="geometry" />
        </mxCell>
        <mxCell id="qLM1yfY9q9ddXlRUWV7z-101" value="" style="whiteSpace=wrap;html=1;rounded=0;strokeWidth=1;align=center;verticalAlign=middle;fontFamily=Helvetica;fontSize=12;fontColor=default;resizable=1;fillColor=#111111;strokeColor=none;container=0;" parent="qLM1yfY9q9ddXlRUWV7z-97" vertex="1">
          <mxGeometry x="67" y="1" width="5" height="13" as="geometry" />
        </mxCell>
        <mxCell id="qLM1yfY9q9ddXlRUWV7z-102" value="" style="whiteSpace=wrap;html=1;rounded=0;strokeWidth=1;align=center;verticalAlign=middle;fontFamily=Helvetica;fontSize=12;fontColor=default;resizable=1;fillColor=#333333;strokeColor=none;container=0;" parent="qLM1yfY9q9ddXlRUWV7z-97" vertex="1">
          <mxGeometry x="72" y="1" width="4" height="13" as="geometry" />
        </mxCell>
        <mxCell id="qLM1yfY9q9ddXlRUWV7z-103" value="" style="triangle;whiteSpace=wrap;html=1;strokeColor=#111111;rounded=0;strokeWidth=0.1;align=center;verticalAlign=middle;fontFamily=Helvetica;fontSize=12;fontColor=default;resizable=1;fillColor=#333333;rotation=-180;container=0;" parent="qLM1yfY9q9ddXlRUWV7z-97" vertex="1">
          <mxGeometry x="72.5" y="6" width="3" height="3" as="geometry" />
        </mxCell>
        <mxCell id="qLM1yfY9q9ddXlRUWV7z-104" value="" style="shape=hexagon;perimeter=hexagonPerimeter2;whiteSpace=wrap;html=1;fixedSize=1;rounded=0;strokeWidth=1;align=center;verticalAlign=middle;fontFamily=Helvetica;fontSize=12;fontColor=default;resizable=1;fillColor=#111111;strokeColor=none;size=3.8021390374331503;container=0;" parent="qLM1yfY9q9ddXlRUWV7z-97" vertex="1">
          <mxGeometry x="10" y="8" width="16" height="6" as="geometry" />
        </mxCell>
        <mxCell id="qLM1yfY9q9ddXlRUWV7z-105" value="" style="shape=hexagon;perimeter=hexagonPerimeter2;whiteSpace=wrap;html=1;fixedSize=1;rounded=0;strokeWidth=1;align=center;verticalAlign=middle;fontFamily=Helvetica;fontSize=12;fontColor=default;resizable=1;fillColor=#111111;strokeColor=none;size=3.8021390374331503;container=0;" parent="qLM1yfY9q9ddXlRUWV7z-97" vertex="1">
          <mxGeometry x="23" y="4.5" width="16" height="6" as="geometry" />
        </mxCell>
        <mxCell id="qLM1yfY9q9ddXlRUWV7z-106" value="" style="shape=hexagon;perimeter=hexagonPerimeter2;whiteSpace=wrap;html=1;fixedSize=1;rounded=0;strokeWidth=1;align=center;verticalAlign=middle;fontFamily=Helvetica;fontSize=12;fontColor=default;resizable=1;fillColor=#111111;strokeColor=none;size=3.8021390374331503;container=0;" parent="qLM1yfY9q9ddXlRUWV7z-97" vertex="1">
          <mxGeometry x="36" y="8" width="16" height="6" as="geometry" />
        </mxCell>
        <mxCell id="qLM1yfY9q9ddXlRUWV7z-107" value="" style="shape=hexagon;perimeter=hexagonPerimeter2;whiteSpace=wrap;html=1;fixedSize=1;rounded=0;strokeWidth=1;align=center;verticalAlign=middle;fontFamily=Helvetica;fontSize=12;fontColor=default;resizable=1;fillColor=#111111;strokeColor=none;size=3.8021390374331503;container=0;" parent="qLM1yfY9q9ddXlRUWV7z-97" vertex="1">
          <mxGeometry x="36" y="1" width="16" height="6" as="geometry" />
        </mxCell>
        <mxCell id="qLM1yfY9q9ddXlRUWV7z-108" value="" style="shape=trapezoid;perimeter=trapezoidPerimeter;whiteSpace=wrap;html=1;fixedSize=1;rounded=0;strokeWidth=1;align=center;verticalAlign=middle;fontFamily=Helvetica;fontSize=12;fontColor=default;resizable=1;fillColor=#111111;strokeColor=none;size=3.799999999999997;container=0;" parent="qLM1yfY9q9ddXlRUWV7z-97" vertex="1">
          <mxGeometry x="23" y="11.5" width="16" height="3" as="geometry" />
        </mxCell>
        <mxCell id="qLM1yfY9q9ddXlRUWV7z-109" value="" style="shape=trapezoid;perimeter=trapezoidPerimeter;whiteSpace=wrap;html=1;fixedSize=1;rounded=0;strokeWidth=1;align=center;verticalAlign=middle;fontFamily=Helvetica;fontSize=12;fontColor=default;resizable=1;fillColor=#111111;strokeColor=none;size=3.799999999999997;flipV=1;container=0;" parent="qLM1yfY9q9ddXlRUWV7z-97" vertex="1">
          <mxGeometry x="23" y="0.5" width="16" height="3" as="geometry" />
        </mxCell>
        <mxCell id="qLM1yfY9q9ddXlRUWV7z-110" value="" style="rounded=1;whiteSpace=wrap;html=1;strokeColor=none;fillColor=#008a00;fontColor=#ffffff;container=0;" parent="qLM1yfY9q9ddXlRUWV7z-97" vertex="1">
          <mxGeometry x="76.5" y="10" width="2" height="3" as="geometry" />
        </mxCell>
        <mxCell id="qLM1yfY9q9ddXlRUWV7z-111" value="" style="rounded=1;whiteSpace=wrap;html=1;strokeColor=none;fillColor=#0050ef;fontColor=#ffffff;container=0;" parent="qLM1yfY9q9ddXlRUWV7z-97" vertex="1">
          <mxGeometry x="76.5" y="2" width="2" height="3" as="geometry" />
        </mxCell>
        <mxCell id="qLM1yfY9q9ddXlRUWV7z-112" value="" style="shape=loopLimit;whiteSpace=wrap;html=1;rounded=0;strokeWidth=1;align=center;verticalAlign=middle;fontFamily=Helvetica;fontSize=12;fontColor=default;resizable=1;fillColor=#111111;strokeColor=none;rotation=90;size=4;container=0;" parent="qLM1yfY9q9ddXlRUWV7z-97" vertex="1">
          <mxGeometry x="-2.5" y="2.5" width="15" height="10" as="geometry" />
        </mxCell>
        <mxCell id="qLM1yfY9q9ddXlRUWV7z-113" value="" style="shape=hexagon;perimeter=hexagonPerimeter2;whiteSpace=wrap;html=1;fixedSize=1;rounded=0;strokeWidth=1;align=center;verticalAlign=middle;fontFamily=Helvetica;fontSize=12;fontColor=default;resizable=1;fillColor=#111111;strokeColor=none;size=3.8021390374331503;container=0;" parent="qLM1yfY9q9ddXlRUWV7z-97" vertex="1">
          <mxGeometry x="49" y="4.5" width="16" height="6" as="geometry" />
        </mxCell>
        <mxCell id="qLM1yfY9q9ddXlRUWV7z-114" value="" style="shape=trapezoid;perimeter=trapezoidPerimeter;whiteSpace=wrap;html=1;fixedSize=1;rounded=0;strokeWidth=1;align=center;verticalAlign=middle;fontFamily=Helvetica;fontSize=12;fontColor=default;resizable=1;fillColor=#111111;strokeColor=none;size=3.799999999999997;container=0;" parent="qLM1yfY9q9ddXlRUWV7z-97" vertex="1">
          <mxGeometry x="49" y="11.5" width="16" height="3" as="geometry" />
        </mxCell>
        <mxCell id="qLM1yfY9q9ddXlRUWV7z-115" value="" style="shape=trapezoid;perimeter=trapezoidPerimeter;whiteSpace=wrap;html=1;fixedSize=1;rounded=0;strokeWidth=1;align=center;verticalAlign=middle;fontFamily=Helvetica;fontSize=12;fontColor=default;resizable=1;fillColor=#111111;strokeColor=none;size=3.799999999999997;flipV=1;container=0;" parent="qLM1yfY9q9ddXlRUWV7z-97" vertex="1">
          <mxGeometry x="49" y="0.5" width="16" height="3" as="geometry" />
        </mxCell>
        <mxCell id="qLM1yfY9q9ddXlRUWV7z-116" value="" style="whiteSpace=wrap;html=1;rounded=0;strokeWidth=1;align=center;verticalAlign=middle;fontFamily=Helvetica;fontSize=12;fontColor=default;resizable=1;fillColor=#222222;strokeColor=none;container=0;" parent="qLM1yfY9q9ddXlRUWV7z-97" vertex="1">
          <mxGeometry x="11" width="60.5" height="1" as="geometry" />
        </mxCell>
        <mxCell id="qLM1yfY9q9ddXlRUWV7z-117" value="" style="whiteSpace=wrap;html=1;rounded=0;strokeWidth=1;align=center;verticalAlign=middle;fontFamily=Helvetica;fontSize=12;fontColor=default;resizable=1;fillColor=#222222;strokeColor=none;container=0;" parent="qLM1yfY9q9ddXlRUWV7z-97" vertex="1">
          <mxGeometry x="14" y="14" width="58.5" height="1" as="geometry" />
        </mxCell>
        <mxCell id="qLM1yfY9q9ddXlRUWV7z-118" value="" style="triangle;whiteSpace=wrap;html=1;rounded=0;strokeWidth=0.01;align=center;verticalAlign=middle;fontFamily=Helvetica;fontSize=12;fontColor=default;resizable=1;fillColor=#111111;strokeColor=none;direction=west;container=0;rotation=0;" parent="qLM1yfY9q9ddXlRUWV7z-97" vertex="1">
          <mxGeometry x="62.2" y="1" width="3.8" height="6" as="geometry" />
        </mxCell>
        <mxCell id="qLM1yfY9q9ddXlRUWV7z-119" value="" style="triangle;whiteSpace=wrap;html=1;rounded=0;strokeWidth=0.01;align=center;verticalAlign=middle;fontFamily=Helvetica;fontSize=12;fontColor=default;resizable=1;fillColor=#111111;strokeColor=none;direction=west;container=0;rotation=0;" parent="qLM1yfY9q9ddXlRUWV7z-97" vertex="1">
          <mxGeometry x="62.2" y="8" width="3.8" height="6" as="geometry" />
        </mxCell>
        <mxCell id="qLM1yfY9q9ddXlRUWV7z-120" value="" style="rounded=0;whiteSpace=wrap;html=1;strokeColor=none;fillColor=#000000;strokeWidth=1;movable=1;resizable=1;rotatable=1;deletable=1;editable=1;locked=0;connectable=1;container=0;" parent="qLM1yfY9q9ddXlRUWV7z-305" vertex="1">
          <mxGeometry x="289.3" y="24.95" width="84" height="19" as="geometry" />
        </mxCell>
        <mxCell id="qLM1yfY9q9ddXlRUWV7z-144" value="" style="group" parent="qLM1yfY9q9ddXlRUWV7z-305" vertex="1" connectable="0">
          <mxGeometry x="291.3" y="27.000000000000004" width="80" height="15" as="geometry" />
        </mxCell>
        <mxCell id="qLM1yfY9q9ddXlRUWV7z-145" value="" style="rounded=0;whiteSpace=wrap;html=1;strokeColor=none;fillColor=#222222;strokeWidth=1;movable=1;resizable=1;rotatable=1;deletable=1;editable=1;locked=0;connectable=1;container=0;" parent="qLM1yfY9q9ddXlRUWV7z-144" vertex="1">
          <mxGeometry width="80" height="15" as="geometry" />
        </mxCell>
        <mxCell id="qLM1yfY9q9ddXlRUWV7z-146" value="" style="whiteSpace=wrap;html=1;rounded=0;strokeWidth=1;align=center;verticalAlign=middle;fontFamily=Helvetica;fontSize=12;fontColor=default;resizable=1;fillColor=#333333;strokeColor=none;container=0;" parent="qLM1yfY9q9ddXlRUWV7z-144" vertex="1">
          <mxGeometry x="1" y="4" width="66" height="7" as="geometry" />
        </mxCell>
        <mxCell id="qLM1yfY9q9ddXlRUWV7z-147" value="" style="shape=hexagon;perimeter=hexagonPerimeter2;whiteSpace=wrap;html=1;fixedSize=1;rounded=0;strokeWidth=1;align=center;verticalAlign=middle;fontFamily=Helvetica;fontSize=12;fontColor=default;resizable=1;fillColor=#111111;strokeColor=none;size=3.8021390374331503;container=0;" parent="qLM1yfY9q9ddXlRUWV7z-144" vertex="1">
          <mxGeometry x="10" y="1" width="16" height="6" as="geometry" />
        </mxCell>
        <mxCell id="qLM1yfY9q9ddXlRUWV7z-148" value="" style="whiteSpace=wrap;html=1;rounded=0;strokeWidth=1;align=center;verticalAlign=middle;fontFamily=Helvetica;fontSize=12;fontColor=default;resizable=1;fillColor=#111111;strokeColor=none;container=0;" parent="qLM1yfY9q9ddXlRUWV7z-144" vertex="1">
          <mxGeometry x="67" y="1" width="5" height="13" as="geometry" />
        </mxCell>
        <mxCell id="qLM1yfY9q9ddXlRUWV7z-149" value="" style="whiteSpace=wrap;html=1;rounded=0;strokeWidth=1;align=center;verticalAlign=middle;fontFamily=Helvetica;fontSize=12;fontColor=default;resizable=1;fillColor=#333333;strokeColor=none;container=0;" parent="qLM1yfY9q9ddXlRUWV7z-144" vertex="1">
          <mxGeometry x="72" y="1" width="4" height="13" as="geometry" />
        </mxCell>
        <mxCell id="qLM1yfY9q9ddXlRUWV7z-150" value="" style="triangle;whiteSpace=wrap;html=1;strokeColor=#111111;rounded=0;strokeWidth=0.1;align=center;verticalAlign=middle;fontFamily=Helvetica;fontSize=12;fontColor=default;resizable=1;fillColor=#333333;rotation=-180;container=0;" parent="qLM1yfY9q9ddXlRUWV7z-144" vertex="1">
          <mxGeometry x="72.5" y="6" width="3" height="3" as="geometry" />
        </mxCell>
        <mxCell id="qLM1yfY9q9ddXlRUWV7z-151" value="" style="shape=hexagon;perimeter=hexagonPerimeter2;whiteSpace=wrap;html=1;fixedSize=1;rounded=0;strokeWidth=1;align=center;verticalAlign=middle;fontFamily=Helvetica;fontSize=12;fontColor=default;resizable=1;fillColor=#111111;strokeColor=none;size=3.8021390374331503;container=0;" parent="qLM1yfY9q9ddXlRUWV7z-144" vertex="1">
          <mxGeometry x="10" y="8" width="16" height="6" as="geometry" />
        </mxCell>
        <mxCell id="qLM1yfY9q9ddXlRUWV7z-152" value="" style="shape=hexagon;perimeter=hexagonPerimeter2;whiteSpace=wrap;html=1;fixedSize=1;rounded=0;strokeWidth=1;align=center;verticalAlign=middle;fontFamily=Helvetica;fontSize=12;fontColor=default;resizable=1;fillColor=#111111;strokeColor=none;size=3.8021390374331503;container=0;" parent="qLM1yfY9q9ddXlRUWV7z-144" vertex="1">
          <mxGeometry x="23" y="4.5" width="16" height="6" as="geometry" />
        </mxCell>
        <mxCell id="qLM1yfY9q9ddXlRUWV7z-153" value="" style="shape=hexagon;perimeter=hexagonPerimeter2;whiteSpace=wrap;html=1;fixedSize=1;rounded=0;strokeWidth=1;align=center;verticalAlign=middle;fontFamily=Helvetica;fontSize=12;fontColor=default;resizable=1;fillColor=#111111;strokeColor=none;size=3.8021390374331503;container=0;" parent="qLM1yfY9q9ddXlRUWV7z-144" vertex="1">
          <mxGeometry x="36" y="8" width="16" height="6" as="geometry" />
        </mxCell>
        <mxCell id="qLM1yfY9q9ddXlRUWV7z-154" value="" style="shape=hexagon;perimeter=hexagonPerimeter2;whiteSpace=wrap;html=1;fixedSize=1;rounded=0;strokeWidth=1;align=center;verticalAlign=middle;fontFamily=Helvetica;fontSize=12;fontColor=default;resizable=1;fillColor=#111111;strokeColor=none;size=3.8021390374331503;container=0;" parent="qLM1yfY9q9ddXlRUWV7z-144" vertex="1">
          <mxGeometry x="36" y="1" width="16" height="6" as="geometry" />
        </mxCell>
        <mxCell id="qLM1yfY9q9ddXlRUWV7z-155" value="" style="shape=trapezoid;perimeter=trapezoidPerimeter;whiteSpace=wrap;html=1;fixedSize=1;rounded=0;strokeWidth=1;align=center;verticalAlign=middle;fontFamily=Helvetica;fontSize=12;fontColor=default;resizable=1;fillColor=#111111;strokeColor=none;size=3.799999999999997;container=0;" parent="qLM1yfY9q9ddXlRUWV7z-144" vertex="1">
          <mxGeometry x="23" y="11.5" width="16" height="3" as="geometry" />
        </mxCell>
        <mxCell id="qLM1yfY9q9ddXlRUWV7z-156" value="" style="shape=trapezoid;perimeter=trapezoidPerimeter;whiteSpace=wrap;html=1;fixedSize=1;rounded=0;strokeWidth=1;align=center;verticalAlign=middle;fontFamily=Helvetica;fontSize=12;fontColor=default;resizable=1;fillColor=#111111;strokeColor=none;size=3.799999999999997;flipV=1;container=0;" parent="qLM1yfY9q9ddXlRUWV7z-144" vertex="1">
          <mxGeometry x="23" y="0.5" width="16" height="3" as="geometry" />
        </mxCell>
        <mxCell id="qLM1yfY9q9ddXlRUWV7z-157" value="" style="rounded=1;whiteSpace=wrap;html=1;strokeColor=none;fillColor=#008a00;fontColor=#ffffff;container=0;" parent="qLM1yfY9q9ddXlRUWV7z-144" vertex="1">
          <mxGeometry x="76.5" y="10" width="2" height="3" as="geometry" />
        </mxCell>
        <mxCell id="qLM1yfY9q9ddXlRUWV7z-158" value="" style="rounded=1;whiteSpace=wrap;html=1;strokeColor=none;fillColor=#0050ef;fontColor=#ffffff;container=0;" parent="qLM1yfY9q9ddXlRUWV7z-144" vertex="1">
          <mxGeometry x="76.5" y="2" width="2" height="3" as="geometry" />
        </mxCell>
        <mxCell id="qLM1yfY9q9ddXlRUWV7z-159" value="" style="shape=loopLimit;whiteSpace=wrap;html=1;rounded=0;strokeWidth=1;align=center;verticalAlign=middle;fontFamily=Helvetica;fontSize=12;fontColor=default;resizable=1;fillColor=#111111;strokeColor=none;rotation=90;size=4;container=0;" parent="qLM1yfY9q9ddXlRUWV7z-144" vertex="1">
          <mxGeometry x="-2.5" y="2.5" width="15" height="10" as="geometry" />
        </mxCell>
        <mxCell id="qLM1yfY9q9ddXlRUWV7z-160" value="" style="shape=hexagon;perimeter=hexagonPerimeter2;whiteSpace=wrap;html=1;fixedSize=1;rounded=0;strokeWidth=1;align=center;verticalAlign=middle;fontFamily=Helvetica;fontSize=12;fontColor=default;resizable=1;fillColor=#111111;strokeColor=none;size=3.8021390374331503;container=0;" parent="qLM1yfY9q9ddXlRUWV7z-144" vertex="1">
          <mxGeometry x="49" y="4.5" width="16" height="6" as="geometry" />
        </mxCell>
        <mxCell id="qLM1yfY9q9ddXlRUWV7z-161" value="" style="shape=trapezoid;perimeter=trapezoidPerimeter;whiteSpace=wrap;html=1;fixedSize=1;rounded=0;strokeWidth=1;align=center;verticalAlign=middle;fontFamily=Helvetica;fontSize=12;fontColor=default;resizable=1;fillColor=#111111;strokeColor=none;size=3.799999999999997;container=0;" parent="qLM1yfY9q9ddXlRUWV7z-144" vertex="1">
          <mxGeometry x="49" y="11.5" width="16" height="3" as="geometry" />
        </mxCell>
        <mxCell id="qLM1yfY9q9ddXlRUWV7z-162" value="" style="shape=trapezoid;perimeter=trapezoidPerimeter;whiteSpace=wrap;html=1;fixedSize=1;rounded=0;strokeWidth=1;align=center;verticalAlign=middle;fontFamily=Helvetica;fontSize=12;fontColor=default;resizable=1;fillColor=#111111;strokeColor=none;size=3.799999999999997;flipV=1;container=0;" parent="qLM1yfY9q9ddXlRUWV7z-144" vertex="1">
          <mxGeometry x="49" y="0.5" width="16" height="3" as="geometry" />
        </mxCell>
        <mxCell id="qLM1yfY9q9ddXlRUWV7z-163" value="" style="whiteSpace=wrap;html=1;rounded=0;strokeWidth=1;align=center;verticalAlign=middle;fontFamily=Helvetica;fontSize=12;fontColor=default;resizable=1;fillColor=#222222;strokeColor=none;container=0;" parent="qLM1yfY9q9ddXlRUWV7z-144" vertex="1">
          <mxGeometry x="11" width="60.5" height="1" as="geometry" />
        </mxCell>
        <mxCell id="qLM1yfY9q9ddXlRUWV7z-164" value="" style="whiteSpace=wrap;html=1;rounded=0;strokeWidth=1;align=center;verticalAlign=middle;fontFamily=Helvetica;fontSize=12;fontColor=default;resizable=1;fillColor=#222222;strokeColor=none;container=0;" parent="qLM1yfY9q9ddXlRUWV7z-144" vertex="1">
          <mxGeometry x="14" y="14" width="58.5" height="1" as="geometry" />
        </mxCell>
        <mxCell id="qLM1yfY9q9ddXlRUWV7z-165" value="" style="triangle;whiteSpace=wrap;html=1;rounded=0;strokeWidth=0.01;align=center;verticalAlign=middle;fontFamily=Helvetica;fontSize=12;fontColor=default;resizable=1;fillColor=#111111;strokeColor=none;direction=west;container=0;rotation=0;" parent="qLM1yfY9q9ddXlRUWV7z-144" vertex="1">
          <mxGeometry x="62.2" y="1" width="3.8" height="6" as="geometry" />
        </mxCell>
        <mxCell id="qLM1yfY9q9ddXlRUWV7z-166" value="" style="triangle;whiteSpace=wrap;html=1;rounded=0;strokeWidth=0.01;align=center;verticalAlign=middle;fontFamily=Helvetica;fontSize=12;fontColor=default;resizable=1;fillColor=#111111;strokeColor=none;direction=west;container=0;rotation=0;" parent="qLM1yfY9q9ddXlRUWV7z-144" vertex="1">
          <mxGeometry x="62.2" y="8" width="3.8" height="6" as="geometry" />
        </mxCell>
        <mxCell id="qLM1yfY9q9ddXlRUWV7z-167" value="" style="rounded=0;whiteSpace=wrap;html=1;strokeColor=none;fillColor=#000000;strokeWidth=1;movable=1;resizable=1;rotatable=1;deletable=1;editable=1;locked=0;connectable=1;container=0;" parent="qLM1yfY9q9ddXlRUWV7z-305" vertex="1">
          <mxGeometry x="379.3" y="24.95" width="84.8" height="19" as="geometry" />
        </mxCell>
        <mxCell id="qLM1yfY9q9ddXlRUWV7z-191" value="" style="group" parent="qLM1yfY9q9ddXlRUWV7z-305" vertex="1" connectable="0">
          <mxGeometry x="381.3" y="27.000000000000004" width="80" height="15" as="geometry" />
        </mxCell>
        <mxCell id="qLM1yfY9q9ddXlRUWV7z-192" value="" style="rounded=0;whiteSpace=wrap;html=1;strokeColor=none;fillColor=#222222;strokeWidth=1;movable=1;resizable=1;rotatable=1;deletable=1;editable=1;locked=0;connectable=1;container=0;" parent="qLM1yfY9q9ddXlRUWV7z-191" vertex="1">
          <mxGeometry width="80" height="15" as="geometry" />
        </mxCell>
        <mxCell id="qLM1yfY9q9ddXlRUWV7z-193" value="" style="whiteSpace=wrap;html=1;rounded=0;strokeWidth=1;align=center;verticalAlign=middle;fontFamily=Helvetica;fontSize=12;fontColor=default;resizable=1;fillColor=#333333;strokeColor=none;container=0;" parent="qLM1yfY9q9ddXlRUWV7z-191" vertex="1">
          <mxGeometry x="1" y="4" width="66" height="7" as="geometry" />
        </mxCell>
        <mxCell id="qLM1yfY9q9ddXlRUWV7z-194" value="" style="shape=hexagon;perimeter=hexagonPerimeter2;whiteSpace=wrap;html=1;fixedSize=1;rounded=0;strokeWidth=1;align=center;verticalAlign=middle;fontFamily=Helvetica;fontSize=12;fontColor=default;resizable=1;fillColor=#111111;strokeColor=none;size=3.8021390374331503;container=0;" parent="qLM1yfY9q9ddXlRUWV7z-191" vertex="1">
          <mxGeometry x="10" y="1" width="16" height="6" as="geometry" />
        </mxCell>
        <mxCell id="qLM1yfY9q9ddXlRUWV7z-195" value="" style="whiteSpace=wrap;html=1;rounded=0;strokeWidth=1;align=center;verticalAlign=middle;fontFamily=Helvetica;fontSize=12;fontColor=default;resizable=1;fillColor=#111111;strokeColor=none;container=0;" parent="qLM1yfY9q9ddXlRUWV7z-191" vertex="1">
          <mxGeometry x="67" y="1" width="5" height="13" as="geometry" />
        </mxCell>
        <mxCell id="qLM1yfY9q9ddXlRUWV7z-196" value="" style="whiteSpace=wrap;html=1;rounded=0;strokeWidth=1;align=center;verticalAlign=middle;fontFamily=Helvetica;fontSize=12;fontColor=default;resizable=1;fillColor=#333333;strokeColor=none;container=0;" parent="qLM1yfY9q9ddXlRUWV7z-191" vertex="1">
          <mxGeometry x="72" y="1" width="4" height="13" as="geometry" />
        </mxCell>
        <mxCell id="qLM1yfY9q9ddXlRUWV7z-197" value="" style="triangle;whiteSpace=wrap;html=1;strokeColor=#111111;rounded=0;strokeWidth=0.1;align=center;verticalAlign=middle;fontFamily=Helvetica;fontSize=12;fontColor=default;resizable=1;fillColor=#333333;rotation=-180;container=0;" parent="qLM1yfY9q9ddXlRUWV7z-191" vertex="1">
          <mxGeometry x="72.5" y="6" width="3" height="3" as="geometry" />
        </mxCell>
        <mxCell id="qLM1yfY9q9ddXlRUWV7z-198" value="" style="shape=hexagon;perimeter=hexagonPerimeter2;whiteSpace=wrap;html=1;fixedSize=1;rounded=0;strokeWidth=1;align=center;verticalAlign=middle;fontFamily=Helvetica;fontSize=12;fontColor=default;resizable=1;fillColor=#111111;strokeColor=none;size=3.8021390374331503;container=0;" parent="qLM1yfY9q9ddXlRUWV7z-191" vertex="1">
          <mxGeometry x="10" y="8" width="16" height="6" as="geometry" />
        </mxCell>
        <mxCell id="qLM1yfY9q9ddXlRUWV7z-199" value="" style="shape=hexagon;perimeter=hexagonPerimeter2;whiteSpace=wrap;html=1;fixedSize=1;rounded=0;strokeWidth=1;align=center;verticalAlign=middle;fontFamily=Helvetica;fontSize=12;fontColor=default;resizable=1;fillColor=#111111;strokeColor=none;size=3.8021390374331503;container=0;" parent="qLM1yfY9q9ddXlRUWV7z-191" vertex="1">
          <mxGeometry x="23" y="4.5" width="16" height="6" as="geometry" />
        </mxCell>
        <mxCell id="qLM1yfY9q9ddXlRUWV7z-200" value="" style="shape=hexagon;perimeter=hexagonPerimeter2;whiteSpace=wrap;html=1;fixedSize=1;rounded=0;strokeWidth=1;align=center;verticalAlign=middle;fontFamily=Helvetica;fontSize=12;fontColor=default;resizable=1;fillColor=#111111;strokeColor=none;size=3.8021390374331503;container=0;" parent="qLM1yfY9q9ddXlRUWV7z-191" vertex="1">
          <mxGeometry x="36" y="8" width="16" height="6" as="geometry" />
        </mxCell>
        <mxCell id="qLM1yfY9q9ddXlRUWV7z-201" value="" style="shape=hexagon;perimeter=hexagonPerimeter2;whiteSpace=wrap;html=1;fixedSize=1;rounded=0;strokeWidth=1;align=center;verticalAlign=middle;fontFamily=Helvetica;fontSize=12;fontColor=default;resizable=1;fillColor=#111111;strokeColor=none;size=3.8021390374331503;container=0;" parent="qLM1yfY9q9ddXlRUWV7z-191" vertex="1">
          <mxGeometry x="36" y="1" width="16" height="6" as="geometry" />
        </mxCell>
        <mxCell id="qLM1yfY9q9ddXlRUWV7z-202" value="" style="shape=trapezoid;perimeter=trapezoidPerimeter;whiteSpace=wrap;html=1;fixedSize=1;rounded=0;strokeWidth=1;align=center;verticalAlign=middle;fontFamily=Helvetica;fontSize=12;fontColor=default;resizable=1;fillColor=#111111;strokeColor=none;size=3.799999999999997;container=0;" parent="qLM1yfY9q9ddXlRUWV7z-191" vertex="1">
          <mxGeometry x="23" y="11.5" width="16" height="3" as="geometry" />
        </mxCell>
        <mxCell id="qLM1yfY9q9ddXlRUWV7z-203" value="" style="shape=trapezoid;perimeter=trapezoidPerimeter;whiteSpace=wrap;html=1;fixedSize=1;rounded=0;strokeWidth=1;align=center;verticalAlign=middle;fontFamily=Helvetica;fontSize=12;fontColor=default;resizable=1;fillColor=#111111;strokeColor=none;size=3.799999999999997;flipV=1;container=0;" parent="qLM1yfY9q9ddXlRUWV7z-191" vertex="1">
          <mxGeometry x="23" y="0.5" width="16" height="3" as="geometry" />
        </mxCell>
        <mxCell id="qLM1yfY9q9ddXlRUWV7z-204" value="" style="rounded=1;whiteSpace=wrap;html=1;strokeColor=none;fillColor=#008a00;fontColor=#ffffff;container=0;" parent="qLM1yfY9q9ddXlRUWV7z-191" vertex="1">
          <mxGeometry x="76.5" y="10" width="2" height="3" as="geometry" />
        </mxCell>
        <mxCell id="qLM1yfY9q9ddXlRUWV7z-205" value="" style="rounded=1;whiteSpace=wrap;html=1;strokeColor=none;fillColor=#0050ef;fontColor=#ffffff;container=0;" parent="qLM1yfY9q9ddXlRUWV7z-191" vertex="1">
          <mxGeometry x="76.5" y="2" width="2" height="3" as="geometry" />
        </mxCell>
        <mxCell id="qLM1yfY9q9ddXlRUWV7z-206" value="" style="shape=loopLimit;whiteSpace=wrap;html=1;rounded=0;strokeWidth=1;align=center;verticalAlign=middle;fontFamily=Helvetica;fontSize=12;fontColor=default;resizable=1;fillColor=#111111;strokeColor=none;rotation=90;size=4;container=0;" parent="qLM1yfY9q9ddXlRUWV7z-191" vertex="1">
          <mxGeometry x="-2.5" y="2.5" width="15" height="10" as="geometry" />
        </mxCell>
        <mxCell id="qLM1yfY9q9ddXlRUWV7z-207" value="" style="shape=hexagon;perimeter=hexagonPerimeter2;whiteSpace=wrap;html=1;fixedSize=1;rounded=0;strokeWidth=1;align=center;verticalAlign=middle;fontFamily=Helvetica;fontSize=12;fontColor=default;resizable=1;fillColor=#111111;strokeColor=none;size=3.8021390374331503;container=0;" parent="qLM1yfY9q9ddXlRUWV7z-191" vertex="1">
          <mxGeometry x="49" y="4.5" width="16" height="6" as="geometry" />
        </mxCell>
        <mxCell id="qLM1yfY9q9ddXlRUWV7z-208" value="" style="shape=trapezoid;perimeter=trapezoidPerimeter;whiteSpace=wrap;html=1;fixedSize=1;rounded=0;strokeWidth=1;align=center;verticalAlign=middle;fontFamily=Helvetica;fontSize=12;fontColor=default;resizable=1;fillColor=#111111;strokeColor=none;size=3.799999999999997;container=0;" parent="qLM1yfY9q9ddXlRUWV7z-191" vertex="1">
          <mxGeometry x="49" y="11.5" width="16" height="3" as="geometry" />
        </mxCell>
        <mxCell id="qLM1yfY9q9ddXlRUWV7z-209" value="" style="shape=trapezoid;perimeter=trapezoidPerimeter;whiteSpace=wrap;html=1;fixedSize=1;rounded=0;strokeWidth=1;align=center;verticalAlign=middle;fontFamily=Helvetica;fontSize=12;fontColor=default;resizable=1;fillColor=#111111;strokeColor=none;size=3.799999999999997;flipV=1;container=0;" parent="qLM1yfY9q9ddXlRUWV7z-191" vertex="1">
          <mxGeometry x="49" y="0.5" width="16" height="3" as="geometry" />
        </mxCell>
        <mxCell id="qLM1yfY9q9ddXlRUWV7z-210" value="" style="whiteSpace=wrap;html=1;rounded=0;strokeWidth=1;align=center;verticalAlign=middle;fontFamily=Helvetica;fontSize=12;fontColor=default;resizable=1;fillColor=#222222;strokeColor=none;container=0;" parent="qLM1yfY9q9ddXlRUWV7z-191" vertex="1">
          <mxGeometry x="11" width="60.5" height="1" as="geometry" />
        </mxCell>
        <mxCell id="qLM1yfY9q9ddXlRUWV7z-211" value="" style="whiteSpace=wrap;html=1;rounded=0;strokeWidth=1;align=center;verticalAlign=middle;fontFamily=Helvetica;fontSize=12;fontColor=default;resizable=1;fillColor=#222222;strokeColor=none;container=0;" parent="qLM1yfY9q9ddXlRUWV7z-191" vertex="1">
          <mxGeometry x="14" y="14" width="58.5" height="1" as="geometry" />
        </mxCell>
        <mxCell id="qLM1yfY9q9ddXlRUWV7z-212" value="" style="triangle;whiteSpace=wrap;html=1;rounded=0;strokeWidth=0.01;align=center;verticalAlign=middle;fontFamily=Helvetica;fontSize=12;fontColor=default;resizable=1;fillColor=#111111;strokeColor=none;direction=west;container=0;rotation=0;" parent="qLM1yfY9q9ddXlRUWV7z-191" vertex="1">
          <mxGeometry x="62.2" y="1" width="3.8" height="6" as="geometry" />
        </mxCell>
        <mxCell id="qLM1yfY9q9ddXlRUWV7z-213" value="" style="triangle;whiteSpace=wrap;html=1;rounded=0;strokeWidth=0.01;align=center;verticalAlign=middle;fontFamily=Helvetica;fontSize=12;fontColor=default;resizable=1;fillColor=#111111;strokeColor=none;direction=west;container=0;rotation=0;" parent="qLM1yfY9q9ddXlRUWV7z-191" vertex="1">
          <mxGeometry x="62.2" y="8" width="3.8" height="6" as="geometry" />
        </mxCell>
        <mxCell id="qLM1yfY9q9ddXlRUWV7z-216" value="" style="rounded=0;whiteSpace=wrap;html=1;strokeColor=none;fillColor=#000000;strokeWidth=1;movable=1;resizable=1;rotatable=1;deletable=1;editable=1;locked=0;connectable=1;container=0;" parent="qLM1yfY9q9ddXlRUWV7z-305" vertex="1">
          <mxGeometry x="23" y="0.5" width="10" height="5" as="geometry" />
        </mxCell>
        <mxCell id="qLM1yfY9q9ddXlRUWV7z-217" value="" style="rounded=0;whiteSpace=wrap;html=1;strokeColor=none;fillColor=#000000;strokeWidth=1;movable=1;resizable=1;rotatable=1;deletable=1;editable=1;locked=0;connectable=1;container=0;" parent="qLM1yfY9q9ddXlRUWV7z-305" vertex="1">
          <mxGeometry x="34" y="0.5" width="10" height="5" as="geometry" />
        </mxCell>
        <mxCell id="qLM1yfY9q9ddXlRUWV7z-218" value="" style="rounded=0;whiteSpace=wrap;html=1;strokeColor=none;fillColor=#000000;strokeWidth=1;movable=1;resizable=1;rotatable=1;deletable=1;editable=1;locked=0;connectable=1;container=0;" parent="qLM1yfY9q9ddXlRUWV7z-305" vertex="1">
          <mxGeometry x="45" y="0.5" width="10" height="5" as="geometry" />
        </mxCell>
        <mxCell id="qLM1yfY9q9ddXlRUWV7z-219" value="" style="rounded=0;whiteSpace=wrap;html=1;strokeColor=none;fillColor=#000000;strokeWidth=1;movable=1;resizable=1;rotatable=1;deletable=1;editable=1;locked=0;connectable=1;container=0;" parent="qLM1yfY9q9ddXlRUWV7z-305" vertex="1">
          <mxGeometry x="56" y="0.5" width="10" height="5" as="geometry" />
        </mxCell>
        <mxCell id="qLM1yfY9q9ddXlRUWV7z-220" value="" style="rounded=0;whiteSpace=wrap;html=1;strokeColor=none;fillColor=#000000;strokeWidth=1;movable=1;resizable=1;rotatable=1;deletable=1;editable=1;locked=0;connectable=1;container=0;" parent="qLM1yfY9q9ddXlRUWV7z-305" vertex="1">
          <mxGeometry x="67" y="0.5" width="10" height="5" as="geometry" />
        </mxCell>
        <mxCell id="qLM1yfY9q9ddXlRUWV7z-221" value="" style="rounded=0;whiteSpace=wrap;html=1;strokeColor=none;fillColor=#000000;strokeWidth=1;movable=1;resizable=1;rotatable=1;deletable=1;editable=1;locked=0;connectable=1;container=0;" parent="qLM1yfY9q9ddXlRUWV7z-305" vertex="1">
          <mxGeometry x="78" y="0.5" width="10" height="5" as="geometry" />
        </mxCell>
        <mxCell id="qLM1yfY9q9ddXlRUWV7z-222" value="" style="rounded=0;whiteSpace=wrap;html=1;strokeColor=none;fillColor=#000000;strokeWidth=1;movable=1;resizable=1;rotatable=1;deletable=1;editable=1;locked=0;connectable=1;container=0;" parent="qLM1yfY9q9ddXlRUWV7z-305" vertex="1">
          <mxGeometry x="89" y="0.5" width="10" height="5" as="geometry" />
        </mxCell>
        <mxCell id="qLM1yfY9q9ddXlRUWV7z-223" value="" style="rounded=0;whiteSpace=wrap;html=1;strokeColor=none;fillColor=#000000;strokeWidth=1;movable=1;resizable=1;rotatable=1;deletable=1;editable=1;locked=0;connectable=1;container=0;" parent="qLM1yfY9q9ddXlRUWV7z-305" vertex="1">
          <mxGeometry x="100" y="0.5" width="10" height="5" as="geometry" />
        </mxCell>
        <mxCell id="qLM1yfY9q9ddXlRUWV7z-224" value="" style="rounded=0;whiteSpace=wrap;html=1;strokeColor=none;fillColor=#000000;strokeWidth=1;movable=1;resizable=1;rotatable=1;deletable=1;editable=1;locked=0;connectable=1;container=0;" parent="qLM1yfY9q9ddXlRUWV7z-305" vertex="1">
          <mxGeometry x="111" y="0.5" width="10" height="5" as="geometry" />
        </mxCell>
        <mxCell id="qLM1yfY9q9ddXlRUWV7z-225" value="" style="rounded=0;whiteSpace=wrap;html=1;strokeColor=none;fillColor=#000000;strokeWidth=1;movable=1;resizable=1;rotatable=1;deletable=1;editable=1;locked=0;connectable=1;container=0;" parent="qLM1yfY9q9ddXlRUWV7z-305" vertex="1">
          <mxGeometry x="122" y="0.5" width="10" height="5" as="geometry" />
        </mxCell>
        <mxCell id="qLM1yfY9q9ddXlRUWV7z-226" value="" style="rounded=0;whiteSpace=wrap;html=1;strokeColor=none;fillColor=#000000;strokeWidth=1;movable=1;resizable=1;rotatable=1;deletable=1;editable=1;locked=0;connectable=1;container=0;" parent="qLM1yfY9q9ddXlRUWV7z-305" vertex="1">
          <mxGeometry x="133" y="0.5" width="10" height="5" as="geometry" />
        </mxCell>
        <mxCell id="qLM1yfY9q9ddXlRUWV7z-227" value="" style="rounded=0;whiteSpace=wrap;html=1;strokeColor=none;fillColor=#000000;strokeWidth=1;movable=1;resizable=1;rotatable=1;deletable=1;editable=1;locked=0;connectable=1;container=0;" parent="qLM1yfY9q9ddXlRUWV7z-305" vertex="1">
          <mxGeometry x="144" y="0.5" width="10" height="5" as="geometry" />
        </mxCell>
        <mxCell id="qLM1yfY9q9ddXlRUWV7z-228" value="" style="rounded=0;whiteSpace=wrap;html=1;strokeColor=none;fillColor=#000000;strokeWidth=1;movable=1;resizable=1;rotatable=1;deletable=1;editable=1;locked=0;connectable=1;container=0;" parent="qLM1yfY9q9ddXlRUWV7z-305" vertex="1">
          <mxGeometry x="155" y="0.5" width="10" height="5" as="geometry" />
        </mxCell>
        <mxCell id="qLM1yfY9q9ddXlRUWV7z-229" value="" style="rounded=0;whiteSpace=wrap;html=1;strokeColor=none;fillColor=#000000;strokeWidth=1;movable=1;resizable=1;rotatable=1;deletable=1;editable=1;locked=0;connectable=1;container=0;" parent="qLM1yfY9q9ddXlRUWV7z-305" vertex="1">
          <mxGeometry x="166" y="0.5" width="10" height="5" as="geometry" />
        </mxCell>
        <mxCell id="qLM1yfY9q9ddXlRUWV7z-230" value="" style="rounded=0;whiteSpace=wrap;html=1;strokeColor=none;fillColor=#000000;strokeWidth=1;movable=1;resizable=1;rotatable=1;deletable=1;editable=1;locked=0;connectable=1;container=0;" parent="qLM1yfY9q9ddXlRUWV7z-305" vertex="1">
          <mxGeometry x="177" y="0.5" width="10" height="5" as="geometry" />
        </mxCell>
        <mxCell id="qLM1yfY9q9ddXlRUWV7z-231" value="" style="rounded=0;whiteSpace=wrap;html=1;strokeColor=none;fillColor=#000000;strokeWidth=1;movable=1;resizable=1;rotatable=1;deletable=1;editable=1;locked=0;connectable=1;container=0;" parent="qLM1yfY9q9ddXlRUWV7z-305" vertex="1">
          <mxGeometry x="188" y="0.5" width="10" height="5" as="geometry" />
        </mxCell>
        <mxCell id="qLM1yfY9q9ddXlRUWV7z-232" value="" style="rounded=0;whiteSpace=wrap;html=1;strokeColor=none;fillColor=#000000;strokeWidth=1;movable=1;resizable=1;rotatable=1;deletable=1;editable=1;locked=0;connectable=1;container=0;" parent="qLM1yfY9q9ddXlRUWV7z-305" vertex="1">
          <mxGeometry x="199" y="0.5" width="10" height="5" as="geometry" />
        </mxCell>
        <mxCell id="qLM1yfY9q9ddXlRUWV7z-233" value="" style="rounded=0;whiteSpace=wrap;html=1;strokeColor=none;fillColor=#000000;strokeWidth=1;movable=1;resizable=1;rotatable=1;deletable=1;editable=1;locked=0;connectable=1;container=0;" parent="qLM1yfY9q9ddXlRUWV7z-305" vertex="1">
          <mxGeometry x="210" y="0.5" width="10" height="5" as="geometry" />
        </mxCell>
        <mxCell id="qLM1yfY9q9ddXlRUWV7z-234" value="" style="rounded=0;whiteSpace=wrap;html=1;strokeColor=none;fillColor=#000000;strokeWidth=1;movable=1;resizable=1;rotatable=1;deletable=1;editable=1;locked=0;connectable=1;container=0;" parent="qLM1yfY9q9ddXlRUWV7z-305" vertex="1">
          <mxGeometry x="221" y="0.5" width="10" height="5" as="geometry" />
        </mxCell>
        <mxCell id="qLM1yfY9q9ddXlRUWV7z-235" value="" style="rounded=0;whiteSpace=wrap;html=1;strokeColor=none;fillColor=#000000;strokeWidth=1;movable=1;resizable=1;rotatable=1;deletable=1;editable=1;locked=0;connectable=1;container=0;" parent="qLM1yfY9q9ddXlRUWV7z-305" vertex="1">
          <mxGeometry x="232" y="0.5" width="10" height="5" as="geometry" />
        </mxCell>
        <mxCell id="qLM1yfY9q9ddXlRUWV7z-236" value="" style="rounded=0;whiteSpace=wrap;html=1;strokeColor=none;fillColor=#000000;strokeWidth=1;movable=1;resizable=1;rotatable=1;deletable=1;editable=1;locked=0;connectable=1;container=0;" parent="qLM1yfY9q9ddXlRUWV7z-305" vertex="1">
          <mxGeometry x="243" y="0.5" width="10" height="5" as="geometry" />
        </mxCell>
        <mxCell id="qLM1yfY9q9ddXlRUWV7z-237" value="" style="rounded=0;whiteSpace=wrap;html=1;strokeColor=none;fillColor=#000000;strokeWidth=1;movable=1;resizable=1;rotatable=1;deletable=1;editable=1;locked=0;connectable=1;container=0;" parent="qLM1yfY9q9ddXlRUWV7z-305" vertex="1">
          <mxGeometry x="254" y="0.5" width="10" height="5" as="geometry" />
        </mxCell>
        <mxCell id="qLM1yfY9q9ddXlRUWV7z-238" value="" style="rounded=0;whiteSpace=wrap;html=1;strokeColor=none;fillColor=#000000;strokeWidth=1;movable=1;resizable=1;rotatable=1;deletable=1;editable=1;locked=0;connectable=1;container=0;" parent="qLM1yfY9q9ddXlRUWV7z-305" vertex="1">
          <mxGeometry x="265" y="0.5" width="10" height="5" as="geometry" />
        </mxCell>
        <mxCell id="qLM1yfY9q9ddXlRUWV7z-239" value="" style="rounded=0;whiteSpace=wrap;html=1;strokeColor=none;fillColor=#000000;strokeWidth=1;movable=1;resizable=1;rotatable=1;deletable=1;editable=1;locked=0;connectable=1;container=0;" parent="qLM1yfY9q9ddXlRUWV7z-305" vertex="1">
          <mxGeometry x="276" y="0.5" width="10" height="5" as="geometry" />
        </mxCell>
        <mxCell id="qLM1yfY9q9ddXlRUWV7z-253" value="" style="group" parent="qLM1yfY9q9ddXlRUWV7z-305" vertex="1" connectable="0">
          <mxGeometry x="430.75" y="3.500434782608693" width="25" height="18.499565217391307" as="geometry" />
        </mxCell>
        <mxCell id="qLM1yfY9q9ddXlRUWV7z-214" value="" style="group;rounded=1;arcSize=50;strokeColor=#111111;strokeWidth=2;" parent="qLM1yfY9q9ddXlRUWV7z-253" vertex="1" connectable="0">
          <mxGeometry x="16.850000000000023" y="-1" width="7" height="7" as="geometry" />
        </mxCell>
        <mxCell id="s0dWRtyi07ZF37cMcm2--322" value="" style="ellipse;whiteSpace=wrap;html=1;strokeColor=#000000;fillColor=#6F0000;fontColor=#ffffff;movable=1;resizable=1;rotatable=1;deletable=1;editable=1;locked=0;connectable=1;container=0;strokeWidth=0.1;" parent="qLM1yfY9q9ddXlRUWV7z-214" vertex="1">
          <mxGeometry width="7" height="7" as="geometry" />
        </mxCell>
        <mxCell id="jYugRQpqX03XuYQ0I7Gw-280" value="" style="sketch=0;html=1;strokeColor=#470000;shadow=0;fillColor=none;verticalAlign=top;labelPosition=center;verticalLabelPosition=bottom;shape=mxgraph.gcp2.a7_power;gradientColor=none;strokeWidth=0.1;movable=1;resizable=1;rotatable=1;deletable=1;editable=1;locked=0;connectable=1;container=0;" parent="qLM1yfY9q9ddXlRUWV7z-214" vertex="1">
          <mxGeometry x="1" y="0.9495652173913065" width="5" height="5" as="geometry" />
        </mxCell>
        <mxCell id="qLM1yfY9q9ddXlRUWV7z-242" value="" style="group" parent="qLM1yfY9q9ddXlRUWV7z-253" vertex="1" connectable="0">
          <mxGeometry y="9.499565217391307" width="25" height="9" as="geometry" />
        </mxCell>
        <mxCell id="s0dWRtyi07ZF37cMcm2--305" value="" style="rounded=1;whiteSpace=wrap;html=1;strokeColor=none;fillColor=#121212;strokeWidth=0.1;movable=1;resizable=1;rotatable=1;deletable=1;editable=1;locked=0;connectable=1;container=0;arcSize=50;" parent="qLM1yfY9q9ddXlRUWV7z-242" vertex="1">
          <mxGeometry width="25" height="9" as="geometry" />
        </mxCell>
        <mxCell id="s0dWRtyi07ZF37cMcm2--326" value="" style="strokeWidth=0.1;html=1;shape=mxgraph.flowchart.database;whiteSpace=wrap;strokeColor=default;fillColor=none;movable=1;resizable=1;rotatable=1;deletable=1;editable=1;locked=0;connectable=1;container=0;" parent="qLM1yfY9q9ddXlRUWV7z-242" vertex="1">
          <mxGeometry x="15" y="1" width="3" height="3" as="geometry" />
        </mxCell>
        <mxCell id="s0dWRtyi07ZF37cMcm2--327" value="" style="sketch=0;pointerEvents=1;shadow=0;dashed=0;html=1;strokeColor=none;fillColor=#FFFFFF;labelPosition=center;verticalLabelPosition=bottom;verticalAlign=top;align=center;outlineConnect=0;shape=mxgraph.vvd.infrastructure;movable=1;resizable=1;rotatable=1;deletable=1;editable=1;locked=0;connectable=1;container=0;" parent="qLM1yfY9q9ddXlRUWV7z-242" vertex="1">
          <mxGeometry x="7" y="1" width="3" height="3" as="geometry" />
        </mxCell>
        <mxCell id="s0dWRtyi07ZF37cMcm2--330" value="" style="triangle;whiteSpace=wrap;html=1;rotation=-90;fillColor=none;strokeWidth=0.1;movable=1;resizable=1;rotatable=1;deletable=1;editable=1;locked=0;connectable=1;container=0;" parent="qLM1yfY9q9ddXlRUWV7z-242" vertex="1">
          <mxGeometry x="3" y="1" width="3" height="3" as="geometry" />
        </mxCell>
        <mxCell id="s0dWRtyi07ZF37cMcm2--331" value="" style="sketch=0;html=1;strokeColor=default;shadow=0;fillColor=none;verticalAlign=top;labelPosition=center;verticalLabelPosition=bottom;shape=mxgraph.gcp2.a7_power;gradientColor=none;strokeWidth=0.1;movable=1;resizable=1;rotatable=1;deletable=1;editable=1;locked=0;connectable=1;container=0;" parent="qLM1yfY9q9ddXlRUWV7z-242" vertex="1">
          <mxGeometry x="19" y="1" width="3" height="3" as="geometry" />
        </mxCell>
        <mxCell id="s0dWRtyi07ZF37cMcm2--336" value="" style="sketch=0;pointerEvents=1;shadow=0;dashed=0;html=1;strokeColor=none;fillColor=#FFFFFF;labelPosition=center;verticalLabelPosition=bottom;verticalAlign=top;align=center;outlineConnect=0;shape=mxgraph.vvd.infrastructure;movable=1;resizable=1;rotatable=1;deletable=1;editable=1;locked=0;connectable=1;container=0;" parent="qLM1yfY9q9ddXlRUWV7z-242" vertex="1">
          <mxGeometry x="11" y="1" width="3" height="3" as="geometry" />
        </mxCell>
        <mxCell id="s0dWRtyi07ZF37cMcm2--316" value="" style="ellipse;whiteSpace=wrap;html=1;strokeColor=#000000;fillColor=#60a917;fontColor=#ffffff;movable=1;resizable=1;rotatable=1;deletable=1;editable=1;locked=0;connectable=1;container=0;strokeWidth=0.1;" parent="qLM1yfY9q9ddXlRUWV7z-242" vertex="1">
          <mxGeometry x="3" y="5" width="3" height="3" as="geometry" />
        </mxCell>
        <mxCell id="s0dWRtyi07ZF37cMcm2--332" value="" style="ellipse;whiteSpace=wrap;html=1;strokeColor=#000000;fillColor=#60a917;fontColor=#ffffff;movable=1;resizable=1;rotatable=1;deletable=1;editable=1;locked=0;connectable=1;container=0;strokeWidth=0.1;" parent="qLM1yfY9q9ddXlRUWV7z-242" vertex="1">
          <mxGeometry x="7" y="5" width="3" height="3" as="geometry" />
        </mxCell>
        <mxCell id="s0dWRtyi07ZF37cMcm2--333" value="" style="ellipse;whiteSpace=wrap;html=1;strokeColor=#000000;fillColor=#60a917;fontColor=#ffffff;movable=1;resizable=1;rotatable=1;deletable=1;editable=1;locked=0;connectable=1;container=0;strokeWidth=0.1;" parent="qLM1yfY9q9ddXlRUWV7z-242" vertex="1">
          <mxGeometry x="11" y="5" width="3" height="3" as="geometry" />
        </mxCell>
        <mxCell id="s0dWRtyi07ZF37cMcm2--334" value="" style="ellipse;whiteSpace=wrap;html=1;strokeColor=#000000;fillColor=#60a917;fontColor=#ffffff;movable=1;resizable=1;rotatable=1;deletable=1;editable=1;locked=0;connectable=1;container=0;strokeWidth=0.1;" parent="qLM1yfY9q9ddXlRUWV7z-242" vertex="1">
          <mxGeometry x="15" y="5" width="3" height="3" as="geometry" />
        </mxCell>
        <mxCell id="s0dWRtyi07ZF37cMcm2--335" value="" style="ellipse;whiteSpace=wrap;html=1;strokeColor=#000000;fillColor=#60a917;fontColor=#ffffff;movable=1;resizable=1;rotatable=1;deletable=1;editable=1;locked=0;connectable=1;container=0;strokeWidth=0.1;" parent="qLM1yfY9q9ddXlRUWV7z-242" vertex="1">
          <mxGeometry x="19" y="5" width="3" height="3" as="geometry" />
        </mxCell>
        <mxCell id="qLM1yfY9q9ddXlRUWV7z-246" value="" style="group" parent="qLM1yfY9q9ddXlRUWV7z-253" vertex="1" connectable="0">
          <mxGeometry x="8.850000000000023" width="5" height="5" as="geometry" />
        </mxCell>
        <mxCell id="qLM1yfY9q9ddXlRUWV7z-243" value="" style="group;rounded=1;arcSize=50;strokeColor=#111111;strokeWidth=2;container=0;" parent="qLM1yfY9q9ddXlRUWV7z-246" vertex="1" connectable="0">
          <mxGeometry width="5" height="5" as="geometry" />
        </mxCell>
        <mxCell id="qLM1yfY9q9ddXlRUWV7z-244" value="" style="ellipse;whiteSpace=wrap;html=1;strokeColor=#000000;fillColor=#6F0000;fontColor=#ffffff;movable=1;resizable=1;rotatable=1;deletable=1;editable=1;locked=0;connectable=1;container=0;strokeWidth=0.1;" parent="qLM1yfY9q9ddXlRUWV7z-246" vertex="1">
          <mxGeometry width="5" height="5" as="geometry" />
        </mxCell>
        <mxCell id="qLM1yfY9q9ddXlRUWV7z-250" value="" style="group" parent="qLM1yfY9q9ddXlRUWV7z-253" vertex="1" connectable="0">
          <mxGeometry x="3.25" y="2" width="3" height="3" as="geometry" />
        </mxCell>
        <mxCell id="qLM1yfY9q9ddXlRUWV7z-248" value="" style="group;rounded=1;arcSize=50;strokeColor=#111111;strokeWidth=2;container=0;" parent="qLM1yfY9q9ddXlRUWV7z-250" vertex="1" connectable="0">
          <mxGeometry width="3" height="3" as="geometry" />
        </mxCell>
        <mxCell id="qLM1yfY9q9ddXlRUWV7z-249" value="" style="ellipse;whiteSpace=wrap;html=1;strokeColor=#000000;fillColor=#010101;fontColor=#ffffff;movable=1;resizable=1;rotatable=1;deletable=1;editable=1;locked=0;connectable=1;container=0;strokeWidth=0.1;" parent="qLM1yfY9q9ddXlRUWV7z-250" vertex="1">
          <mxGeometry width="3" height="3" as="geometry" />
        </mxCell>
        <mxCell id="qLM1yfY9q9ddXlRUWV7z-251" value="UID" style="text;html=1;align=center;verticalAlign=middle;whiteSpace=wrap;rounded=0;fontSize=2;" parent="qLM1yfY9q9ddXlRUWV7z-253" vertex="1">
          <mxGeometry x="0.25" y="4.999565217391307" width="9" height="4" as="geometry" />
        </mxCell>
        <mxCell id="qLM1yfY9q9ddXlRUWV7z-252" value="RESET" style="text;html=1;align=center;verticalAlign=middle;whiteSpace=wrap;rounded=0;fontSize=2;" parent="qLM1yfY9q9ddXlRUWV7z-253" vertex="1">
          <mxGeometry x="6.850000000000023" y="5.949565217391307" width="9" height="4" as="geometry" />
        </mxCell>
        <mxCell id="qLM1yfY9q9ddXlRUWV7z-254" value="" style="rounded=0;whiteSpace=wrap;html=1;strokeColor=none;fillColor=#000000;strokeWidth=1;movable=1;resizable=1;rotatable=1;deletable=1;editable=1;locked=0;connectable=1;container=0;" parent="qLM1yfY9q9ddXlRUWV7z-305" vertex="1">
          <mxGeometry x="291" y="0.5" width="132" height="14.7" as="geometry" />
        </mxCell>
        <mxCell id="qLM1yfY9q9ddXlRUWV7z-255" value="" style="rounded=0;whiteSpace=wrap;html=1;strokeColor=none;fillColor=#000000;strokeWidth=1;movable=1;resizable=1;rotatable=1;deletable=1;editable=1;locked=0;connectable=1;container=0;" parent="qLM1yfY9q9ddXlRUWV7z-305" vertex="1">
          <mxGeometry x="292" y="17.5" width="10" height="5" as="geometry" />
        </mxCell>
        <mxCell id="qLM1yfY9q9ddXlRUWV7z-256" value="" style="rounded=0;whiteSpace=wrap;html=1;strokeColor=none;fillColor=#000000;strokeWidth=1;movable=1;resizable=1;rotatable=1;deletable=1;editable=1;locked=0;connectable=1;container=0;" parent="qLM1yfY9q9ddXlRUWV7z-305" vertex="1">
          <mxGeometry x="304" y="17.5" width="10" height="5" as="geometry" />
        </mxCell>
        <mxCell id="qLM1yfY9q9ddXlRUWV7z-257" value="" style="rounded=0;whiteSpace=wrap;html=1;strokeColor=none;fillColor=#000000;strokeWidth=1;movable=1;resizable=1;rotatable=1;deletable=1;editable=1;locked=0;connectable=1;container=0;" parent="qLM1yfY9q9ddXlRUWV7z-305" vertex="1">
          <mxGeometry x="316" y="17.5" width="10" height="5" as="geometry" />
        </mxCell>
        <mxCell id="qLM1yfY9q9ddXlRUWV7z-258" value="" style="rounded=0;whiteSpace=wrap;html=1;strokeColor=none;fillColor=#000000;strokeWidth=1;movable=1;resizable=1;rotatable=1;deletable=1;editable=1;locked=0;connectable=1;container=0;" parent="qLM1yfY9q9ddXlRUWV7z-305" vertex="1">
          <mxGeometry x="328" y="17.5" width="10" height="5" as="geometry" />
        </mxCell>
        <mxCell id="qLM1yfY9q9ddXlRUWV7z-259" value="" style="rounded=0;whiteSpace=wrap;html=1;strokeColor=none;fillColor=#000000;strokeWidth=1;movable=1;resizable=1;rotatable=1;deletable=1;editable=1;locked=0;connectable=1;container=0;" parent="qLM1yfY9q9ddXlRUWV7z-305" vertex="1">
          <mxGeometry x="340" y="17.5" width="10" height="5" as="geometry" />
        </mxCell>
        <mxCell id="qLM1yfY9q9ddXlRUWV7z-260" value="" style="rounded=0;whiteSpace=wrap;html=1;strokeColor=none;fillColor=#000000;strokeWidth=1;movable=1;resizable=1;rotatable=1;deletable=1;editable=1;locked=0;connectable=1;container=0;" parent="qLM1yfY9q9ddXlRUWV7z-305" vertex="1">
          <mxGeometry x="352" y="17.5" width="10" height="5" as="geometry" />
        </mxCell>
        <mxCell id="qLM1yfY9q9ddXlRUWV7z-261" value="" style="rounded=0;whiteSpace=wrap;html=1;strokeColor=none;fillColor=#000000;strokeWidth=1;movable=1;resizable=1;rotatable=1;deletable=1;editable=1;locked=0;connectable=1;container=0;" parent="qLM1yfY9q9ddXlRUWV7z-305" vertex="1">
          <mxGeometry x="364" y="17.5" width="10" height="5" as="geometry" />
        </mxCell>
        <mxCell id="qLM1yfY9q9ddXlRUWV7z-262" value="" style="rounded=0;whiteSpace=wrap;html=1;strokeColor=none;fillColor=#000000;strokeWidth=1;movable=1;resizable=1;rotatable=1;deletable=1;editable=1;locked=0;connectable=1;container=0;" parent="qLM1yfY9q9ddXlRUWV7z-305" vertex="1">
          <mxGeometry x="376" y="17.5" width="10" height="5" as="geometry" />
        </mxCell>
        <mxCell id="qLM1yfY9q9ddXlRUWV7z-263" value="" style="rounded=0;whiteSpace=wrap;html=1;strokeColor=none;fillColor=#000000;strokeWidth=1;movable=1;resizable=1;rotatable=1;deletable=1;editable=1;locked=0;connectable=1;container=0;" parent="qLM1yfY9q9ddXlRUWV7z-305" vertex="1">
          <mxGeometry x="388" y="17.5" width="10" height="5" as="geometry" />
        </mxCell>
        <mxCell id="qLM1yfY9q9ddXlRUWV7z-264" value="" style="rounded=0;whiteSpace=wrap;html=1;strokeColor=none;fillColor=#000000;strokeWidth=1;movable=1;resizable=1;rotatable=1;deletable=1;editable=1;locked=0;connectable=1;container=0;" parent="qLM1yfY9q9ddXlRUWV7z-305" vertex="1">
          <mxGeometry x="400" y="17.5" width="10" height="5" as="geometry" />
        </mxCell>
        <mxCell id="qLM1yfY9q9ddXlRUWV7z-265" value="" style="rounded=0;whiteSpace=wrap;html=1;strokeColor=none;fillColor=#000000;strokeWidth=1;movable=1;resizable=1;rotatable=1;deletable=1;editable=1;locked=0;connectable=1;container=0;" parent="qLM1yfY9q9ddXlRUWV7z-305" vertex="1">
          <mxGeometry x="412" y="17.5" width="10" height="5" as="geometry" />
        </mxCell>
        <mxCell id="qLM1yfY9q9ddXlRUWV7z-266" value="" style="rounded=0;whiteSpace=wrap;html=1;strokeColor=none;fillColor=#222222;strokeWidth=1;movable=1;resizable=1;rotatable=1;deletable=1;editable=1;locked=0;connectable=1;container=0;" parent="qLM1yfY9q9ddXlRUWV7z-305" vertex="1">
          <mxGeometry x="293" y="0.5" width="128" height="12.7" as="geometry" />
        </mxCell>
        <mxCell id="qLM1yfY9q9ddXlRUWV7z-267" value="" style="rounded=0;whiteSpace=wrap;html=1;strokeColor=none;fillColor=#000000;strokeWidth=1;movable=1;resizable=1;rotatable=1;deletable=1;editable=1;locked=0;connectable=1;container=0;" parent="qLM1yfY9q9ddXlRUWV7z-305" vertex="1">
          <mxGeometry x="304" y="3.35" width="10" height="7" as="geometry" />
        </mxCell>
        <mxCell id="qLM1yfY9q9ddXlRUWV7z-268" value="" style="rounded=0;whiteSpace=wrap;html=1;strokeColor=none;fillColor=#000000;strokeWidth=1;movable=1;resizable=1;rotatable=1;deletable=1;editable=1;locked=0;connectable=1;container=0;" parent="qLM1yfY9q9ddXlRUWV7z-305" vertex="1">
          <mxGeometry x="316" y="3.35" width="10" height="7" as="geometry" />
        </mxCell>
        <mxCell id="qLM1yfY9q9ddXlRUWV7z-269" value="" style="rounded=0;whiteSpace=wrap;html=1;strokeColor=none;fillColor=#000000;strokeWidth=1;movable=1;resizable=1;rotatable=1;deletable=1;editable=1;locked=0;connectable=1;container=0;" parent="qLM1yfY9q9ddXlRUWV7z-305" vertex="1">
          <mxGeometry x="328" y="3.35" width="10" height="7" as="geometry" />
        </mxCell>
        <mxCell id="qLM1yfY9q9ddXlRUWV7z-270" value="" style="rounded=0;whiteSpace=wrap;html=1;strokeColor=none;fillColor=#000000;strokeWidth=1;movable=1;resizable=1;rotatable=1;deletable=1;editable=1;locked=0;connectable=1;container=0;" parent="qLM1yfY9q9ddXlRUWV7z-305" vertex="1">
          <mxGeometry x="340" y="3.35" width="10" height="7" as="geometry" />
        </mxCell>
        <mxCell id="qLM1yfY9q9ddXlRUWV7z-271" value="" style="rounded=0;whiteSpace=wrap;html=1;strokeColor=none;fillColor=#000000;strokeWidth=1;movable=1;resizable=1;rotatable=1;deletable=1;editable=1;locked=0;connectable=1;container=0;" parent="qLM1yfY9q9ddXlRUWV7z-305" vertex="1">
          <mxGeometry x="352" y="3.35" width="10" height="7" as="geometry" />
        </mxCell>
        <mxCell id="qLM1yfY9q9ddXlRUWV7z-272" value="" style="rounded=0;whiteSpace=wrap;html=1;strokeColor=none;fillColor=#000000;strokeWidth=1;movable=1;resizable=1;rotatable=1;deletable=1;editable=1;locked=0;connectable=1;container=0;" parent="qLM1yfY9q9ddXlRUWV7z-305" vertex="1">
          <mxGeometry x="364" y="3.35" width="10" height="7" as="geometry" />
        </mxCell>
        <mxCell id="qLM1yfY9q9ddXlRUWV7z-273" value="" style="rounded=0;whiteSpace=wrap;html=1;strokeColor=none;fillColor=#000000;strokeWidth=1;movable=1;resizable=1;rotatable=1;deletable=1;editable=1;locked=0;connectable=1;container=0;" parent="qLM1yfY9q9ddXlRUWV7z-305" vertex="1">
          <mxGeometry x="376" y="3.35" width="10" height="7" as="geometry" />
        </mxCell>
        <mxCell id="qLM1yfY9q9ddXlRUWV7z-274" value="" style="rounded=0;whiteSpace=wrap;html=1;strokeColor=none;fillColor=#000000;strokeWidth=1;movable=1;resizable=1;rotatable=1;deletable=1;editable=1;locked=0;connectable=1;container=0;" parent="qLM1yfY9q9ddXlRUWV7z-305" vertex="1">
          <mxGeometry x="388" y="3.35" width="10" height="7" as="geometry" />
        </mxCell>
        <mxCell id="qLM1yfY9q9ddXlRUWV7z-275" value="" style="rounded=0;whiteSpace=wrap;html=1;strokeColor=none;fillColor=#000000;strokeWidth=1;movable=1;resizable=1;rotatable=1;deletable=1;editable=1;locked=0;connectable=1;container=0;" parent="qLM1yfY9q9ddXlRUWV7z-305" vertex="1">
          <mxGeometry x="400" y="3.35" width="10" height="7" as="geometry" />
        </mxCell>
        <mxCell id="qLM1yfY9q9ddXlRUWV7z-276" value="" style="rounded=0;whiteSpace=wrap;html=1;strokeColor=none;fillColor=#000000;strokeWidth=1;movable=1;resizable=1;rotatable=1;deletable=1;editable=1;locked=0;connectable=1;container=0;" parent="qLM1yfY9q9ddXlRUWV7z-305" vertex="1">
          <mxGeometry x="295" y="3.3499999999999996" width="7" height="7" as="geometry" />
        </mxCell>
        <mxCell id="qLM1yfY9q9ddXlRUWV7z-277" value="" style="rounded=0;whiteSpace=wrap;html=1;strokeColor=none;fillColor=#000000;strokeWidth=1;movable=1;resizable=1;rotatable=1;deletable=1;editable=1;locked=0;connectable=1;container=0;" parent="qLM1yfY9q9ddXlRUWV7z-305" vertex="1">
          <mxGeometry x="412" y="3.3499999999999996" width="7" height="7" as="geometry" />
        </mxCell>
        <mxCell id="qLM1yfY9q9ddXlRUWV7z-278" value="" style="rounded=0;whiteSpace=wrap;html=1;strokeColor=none;fillColor=#000000;strokeWidth=1;movable=1;resizable=1;rotatable=1;deletable=1;editable=1;locked=0;connectable=1;container=0;" parent="qLM1yfY9q9ddXlRUWV7z-305" vertex="1">
          <mxGeometry x="284.3" y="38" width="4" height="5" as="geometry" />
        </mxCell>
        <mxCell id="qLM1yfY9q9ddXlRUWV7z-279" value="" style="rounded=0;whiteSpace=wrap;html=1;strokeColor=none;fillColor=#000000;strokeWidth=1;movable=1;resizable=1;rotatable=1;deletable=1;editable=1;locked=0;connectable=1;container=0;" parent="qLM1yfY9q9ddXlRUWV7z-305" vertex="1">
          <mxGeometry x="284.3" y="32" width="4" height="5" as="geometry" />
        </mxCell>
        <mxCell id="qLM1yfY9q9ddXlRUWV7z-280" value="" style="rounded=0;whiteSpace=wrap;html=1;strokeColor=none;fillColor=#000000;strokeWidth=1;movable=1;resizable=1;rotatable=1;deletable=1;editable=1;locked=0;connectable=1;container=0;" parent="qLM1yfY9q9ddXlRUWV7z-305" vertex="1">
          <mxGeometry x="284.3" y="26" width="4" height="5" as="geometry" />
        </mxCell>
        <mxCell id="qLM1yfY9q9ddXlRUWV7z-281" value="" style="rounded=0;whiteSpace=wrap;html=1;strokeColor=none;fillColor=#000000;strokeWidth=1;movable=1;resizable=1;rotatable=1;deletable=1;editable=1;locked=0;connectable=1;container=0;" parent="qLM1yfY9q9ddXlRUWV7z-305" vertex="1">
          <mxGeometry x="284.3" y="20" width="4" height="5" as="geometry" />
        </mxCell>
        <mxCell id="qLM1yfY9q9ddXlRUWV7z-282" value="" style="rounded=0;whiteSpace=wrap;html=1;strokeColor=none;fillColor=#000000;strokeWidth=1;movable=1;resizable=1;rotatable=1;deletable=1;editable=1;locked=0;connectable=1;container=0;" parent="qLM1yfY9q9ddXlRUWV7z-305" vertex="1">
          <mxGeometry x="284.3" y="14" width="4" height="5" as="geometry" />
        </mxCell>
        <mxCell id="qLM1yfY9q9ddXlRUWV7z-283" value="" style="rounded=0;whiteSpace=wrap;html=1;strokeColor=none;fillColor=#000000;strokeWidth=1;movable=1;resizable=1;rotatable=1;deletable=1;editable=1;locked=0;connectable=1;container=0;" parent="qLM1yfY9q9ddXlRUWV7z-305" vertex="1">
          <mxGeometry x="284.3" y="8" width="4" height="5" as="geometry" />
        </mxCell>
        <mxCell id="qLM1yfY9q9ddXlRUWV7z-284" value="" style="rounded=0;whiteSpace=wrap;html=1;strokeColor=none;fillColor=#000000;strokeWidth=1;movable=1;resizable=1;rotatable=1;deletable=1;editable=1;locked=0;connectable=1;container=0;" parent="qLM1yfY9q9ddXlRUWV7z-305" vertex="1">
          <mxGeometry x="374.3" y="38" width="4" height="5" as="geometry" />
        </mxCell>
        <mxCell id="qLM1yfY9q9ddXlRUWV7z-285" value="" style="rounded=0;whiteSpace=wrap;html=1;strokeColor=none;fillColor=#000000;strokeWidth=1;movable=1;resizable=1;rotatable=1;deletable=1;editable=1;locked=0;connectable=1;container=0;" parent="qLM1yfY9q9ddXlRUWV7z-305" vertex="1">
          <mxGeometry x="374.3" y="32" width="4" height="5" as="geometry" />
        </mxCell>
        <mxCell id="qLM1yfY9q9ddXlRUWV7z-286" value="" style="rounded=0;whiteSpace=wrap;html=1;strokeColor=none;fillColor=#000000;strokeWidth=1;movable=1;resizable=1;rotatable=1;deletable=1;editable=1;locked=0;connectable=1;container=0;" parent="qLM1yfY9q9ddXlRUWV7z-305" vertex="1">
          <mxGeometry x="374.3" y="26" width="4" height="5" as="geometry" />
        </mxCell>
        <mxCell id="qLM1yfY9q9ddXlRUWV7z-287" value="" style="rounded=0;whiteSpace=wrap;html=1;strokeColor=none;fillColor=#000000;strokeWidth=1;movable=1;resizable=1;rotatable=1;deletable=1;editable=1;locked=0;connectable=1;container=0;" parent="qLM1yfY9q9ddXlRUWV7z-305" vertex="1">
          <mxGeometry x="194.3" y="38" width="4" height="5" as="geometry" />
        </mxCell>
        <mxCell id="qLM1yfY9q9ddXlRUWV7z-288" value="" style="rounded=0;whiteSpace=wrap;html=1;strokeColor=none;fillColor=#000000;strokeWidth=1;movable=1;resizable=1;rotatable=1;deletable=1;editable=1;locked=0;connectable=1;container=0;" parent="qLM1yfY9q9ddXlRUWV7z-305" vertex="1">
          <mxGeometry x="194.3" y="32" width="4" height="5" as="geometry" />
        </mxCell>
        <mxCell id="qLM1yfY9q9ddXlRUWV7z-289" value="" style="rounded=0;whiteSpace=wrap;html=1;strokeColor=none;fillColor=#000000;strokeWidth=1;movable=1;resizable=1;rotatable=1;deletable=1;editable=1;locked=0;connectable=1;container=0;" parent="qLM1yfY9q9ddXlRUWV7z-305" vertex="1">
          <mxGeometry x="194.3" y="26" width="4" height="5" as="geometry" />
        </mxCell>
        <mxCell id="qLM1yfY9q9ddXlRUWV7z-290" value="" style="rounded=0;whiteSpace=wrap;html=1;strokeColor=none;fillColor=#000000;strokeWidth=1;movable=1;resizable=1;rotatable=1;deletable=1;editable=1;locked=0;connectable=1;container=0;" parent="qLM1yfY9q9ddXlRUWV7z-305" vertex="1">
          <mxGeometry x="194.3" y="20" width="4" height="5" as="geometry" />
        </mxCell>
        <mxCell id="qLM1yfY9q9ddXlRUWV7z-291" value="" style="rounded=0;whiteSpace=wrap;html=1;strokeColor=none;fillColor=#000000;strokeWidth=1;movable=1;resizable=1;rotatable=1;deletable=1;editable=1;locked=0;connectable=1;container=0;" parent="qLM1yfY9q9ddXlRUWV7z-305" vertex="1">
          <mxGeometry x="194.3" y="14" width="4" height="5" as="geometry" />
        </mxCell>
        <mxCell id="qLM1yfY9q9ddXlRUWV7z-292" value="" style="rounded=0;whiteSpace=wrap;html=1;strokeColor=none;fillColor=#000000;strokeWidth=1;movable=1;resizable=1;rotatable=1;deletable=1;editable=1;locked=0;connectable=1;container=0;" parent="qLM1yfY9q9ddXlRUWV7z-305" vertex="1">
          <mxGeometry x="194.3" y="8" width="4" height="5" as="geometry" />
        </mxCell>
        <mxCell id="qLM1yfY9q9ddXlRUWV7z-293" value="" style="rounded=0;whiteSpace=wrap;html=1;strokeColor=none;fillColor=#000000;strokeWidth=1;movable=1;resizable=1;rotatable=1;deletable=1;editable=1;locked=0;connectable=1;container=0;" parent="qLM1yfY9q9ddXlRUWV7z-305" vertex="1">
          <mxGeometry x="104.30000000000001" y="38" width="4" height="5" as="geometry" />
        </mxCell>
        <mxCell id="qLM1yfY9q9ddXlRUWV7z-294" value="" style="rounded=0;whiteSpace=wrap;html=1;strokeColor=none;fillColor=#000000;strokeWidth=1;movable=1;resizable=1;rotatable=1;deletable=1;editable=1;locked=0;connectable=1;container=0;" parent="qLM1yfY9q9ddXlRUWV7z-305" vertex="1">
          <mxGeometry x="104.30000000000001" y="32" width="4" height="5" as="geometry" />
        </mxCell>
        <mxCell id="qLM1yfY9q9ddXlRUWV7z-295" value="" style="rounded=0;whiteSpace=wrap;html=1;strokeColor=none;fillColor=#000000;strokeWidth=1;movable=1;resizable=1;rotatable=1;deletable=1;editable=1;locked=0;connectable=1;container=0;" parent="qLM1yfY9q9ddXlRUWV7z-305" vertex="1">
          <mxGeometry x="104.30000000000001" y="26" width="4" height="5" as="geometry" />
        </mxCell>
        <mxCell id="qLM1yfY9q9ddXlRUWV7z-296" value="" style="rounded=0;whiteSpace=wrap;html=1;strokeColor=none;fillColor=#000000;strokeWidth=1;movable=1;resizable=1;rotatable=1;deletable=1;editable=1;locked=0;connectable=1;container=0;" parent="qLM1yfY9q9ddXlRUWV7z-305" vertex="1">
          <mxGeometry x="104.30000000000001" y="20" width="4" height="5" as="geometry" />
        </mxCell>
        <mxCell id="qLM1yfY9q9ddXlRUWV7z-297" value="" style="rounded=0;whiteSpace=wrap;html=1;strokeColor=none;fillColor=#000000;strokeWidth=1;movable=1;resizable=1;rotatable=1;deletable=1;editable=1;locked=0;connectable=1;container=0;" parent="qLM1yfY9q9ddXlRUWV7z-305" vertex="1">
          <mxGeometry x="104.30000000000001" y="14" width="4" height="5" as="geometry" />
        </mxCell>
        <mxCell id="qLM1yfY9q9ddXlRUWV7z-298" value="" style="rounded=0;whiteSpace=wrap;html=1;strokeColor=none;fillColor=#000000;strokeWidth=1;movable=1;resizable=1;rotatable=1;deletable=1;editable=1;locked=0;connectable=1;container=0;" parent="qLM1yfY9q9ddXlRUWV7z-305" vertex="1">
          <mxGeometry x="104.30000000000001" y="8" width="4" height="5" as="geometry" />
        </mxCell>
      </root>
    </mxGraphModel>
  </diagram>
</mxfile>
